<?xml version="1.0" encoding="utf-8"?>
<!DOCTYPE svg PUBLIC "-//W3C//DTD SVG 1.1//EN" "http://www.w3.org/Graphics/SVG/1.1/DTD/svg11.dtd">
<svg height="1891px" style="stroke-linejoin: round; stroke:#000; fill: none;" version="1.1" viewBox="0 0 1000 1891" width="1000px" xmlns="http://www.w3.org/2000/svg" xmlns:xlink="http://www.w3.org/1999/xlink">
 <defs>
  <style type="text/css">
   path { fill-rule: evenodd; }
  </style>
 </defs>
 <title>
  Map of the Philippines
 </title>
 <metadata>
  <views>
   <view h="1891.04241522" padding="0" w="1000">
    <proj flip="auto" id="robinson" lon0="122.144768764"/>
    <bbox h="271.13" w="143.45" x="1727.0" y="-349.12"/>
   </view>
  </views>
 </metadata>
 <g class="default" id="default">
  <path class="BASILAN" d="M521.300271,1654.379464L513.740039,1653.677306L510.665125,1655.850374L509.219119,1662.841577L515.486301,1664.756447L518.488795,1668.634088L518.175860,1674.459313L527.949584,1685.510417L536.197683,1685.221843L551.822398,1679.151271L553.068516,1664.988942L563.325183,1662.792507L562.153608,1657.322452L544.451971,1653.389900L537.354079,1645.035274L533.608588,1645.583214L532.920360,1651.581347L538.265059,1665.928268L523.293854,1665.411872L521.300271,1654.379464Z ">
   <title>
    BASILAN
   </title>
  </path>
  <path class="LANAO DEL SUR" d="M810.762110,1543.534470L805.117597,1538.114669L802.399033,1529.085955L793.210836,1516.511421L789.881203,1514.859429L784.699795,1502.803632L784.915715,1489.378584L774.779206,1480.862778L758.499026,1472.780419L753.448884,1471.323538L751.945763,1480.533315L755.735297,1487.247588L746.744724,1495.327617L741.267328,1495.047222L736.498908,1508.440730L727.334198,1508.833282L731.265329,1514.802182L726.951487,1525.603219L726.535010,1533.132987L710.228001,1528.089385L708.185148,1532.795345L718.741642,1533.970667L730.219764,1540.298244L743.746403,1560.951675L750.144113,1566.265164L755.754723,1555.934939L776.159947,1538.392727L783.051800,1533.992864L790.326722,1541.887149L800.242227,1540.812302L810.762110,1543.534470Z M757.659930,1496.863143L763.457869,1505.271104L758.442718,1508.634670L758.150715,1521.680029L750.080222,1524.279522L737.999745,1518.869072L737.248326,1515.499663L745.777133,1512.247086L752.226337,1499.005456L757.659930,1496.863143Z ">
   <title>
    LANAO DEL SUR
   </title>
  </path>
  <path class="MAGUINDANAO" d="M841.427607,1647.061133L829.292926,1639.024290L820.684334,1639.439042L814.369348,1601.462958L805.927617,1592.154997L804.510255,1597.941658L808.461357,1603.437410L804.731845,1609.349083L806.457223,1615.287807L799.310881,1620.428214L793.465620,1618.012138L789.157682,1612.537414L781.292151,1609.425023L777.253660,1604.215508L782.869733,1588.646550L774.159527,1588.846332L770.871797,1595.413426L766.338596,1595.138872L772.059069,1579.003286L779.905583,1562.377017L773.828615,1553.312077L776.159947,1538.392727L755.754723,1555.934939L750.144113,1566.265164L755.004423,1565.116712L756.585574,1573.915280L751.603563,1574.574209L752.622828,1584.050402L762.868631,1595.247525L755.877765,1595.473010L747.593063,1592.542878L738.776978,1597.685798L731.592257,1611.381950L729.602026,1617.967742L730.298295,1628.230223L729.208998,1634.974908L731.131643,1640.092130L736.501934,1638.512567L738.558194,1642.783929L761.847944,1643.406642L763.569942,1646.545906L787.631806,1646.660401L793.596743,1640.182090L791.251220,1631.318081L801.947165,1627.935807L805.610906,1629.577290L803.919450,1639.442547L812.979799,1639.455398L818.237008,1654.012613L824.468559,1655.487027L841.427607,1647.061133Z ">
   <title>
    MAGUINDANAO
   </title>
  </path>
  <path class="SULU" d="M413.400047,1782.113841L409.488317,1782.610375L409.062962,1789.376095L413.771283,1792.071400L413.400047,1782.113841Z M415.650639,1786.545264L419.651583,1790.495342L424.631136,1785.584908L419.816075,1779.577426L415.543102,1781.378970L415.650639,1786.545264Z M447.663720,1748.396226L446.936742,1755.631611L453.885090,1753.299651L447.663720,1748.396226Z M437.865421,1720.988686L422.643339,1728.255615L418.445285,1736.658149L419.559215,1740.487891L425.909945,1744.015039L434.967724,1739.893217L440.627382,1743.943771L451.723008,1736.869614L455.722768,1738.402445L460.531182,1747.648503L475.231283,1735.890565L474.069866,1731.643733L456.810103,1729.850368L452.562183,1732.093535L446.436778,1722.298369L437.865421,1720.988686Z M386.482421,1699.936789L381.967826,1693.863879L379.022342,1700.437996L386.482421,1699.936789Z ">
   <title>
    SULU
   </title>
  </path>
  <path class="TAWI-TAWI" d="M280.581988,1889.042415L282.178062,1887.515430L285.003149,1874.292461L281.022917,1860.959667L277.799853,1860.811291L281.554370,1878.887438L280.581988,1889.042415Z M316.140108,1856.437125L314.706474,1863.949382L320.012456,1863.563839L316.140108,1856.437125Z M354.501924,1807.350638L349.806598,1807.763054L327.300506,1825.630107L316.719614,1830.153825L314.852104,1838.686032L317.313669,1842.367393L330.429930,1839.127655L337.026104,1826.120800L342.800846,1830.135132L345.792396,1824.382346L357.721549,1826.496997L358.251529,1814.588355L354.501924,1807.350638Z M166.948046,1611.135436L160.185992,1611.356248L161.849703,1617.050615L170.366902,1619.513423L166.948046,1611.135436Z ">
   <title>
    TAWI-TAWI
   </title>
  </path>
  <path class="ABRA" d="M292.371277,365.649427L287.582019,350.762459L283.413906,347.623150L277.283686,347.921075L273.522496,337.447021L267.471760,332.941973L257.117347,335.065980L249.053925,341.260433L245.652551,348.627915L234.442065,353.908783L232.741149,364.009073L230.337440,374.228594L229.780976,387.955579L242.557955,391.020183L240.039079,404.332512L243.661973,410.544727L248.164376,409.923155L256.971431,416.832904L257.430546,422.271687L261.928064,428.066837L269.387942,427.563266L276.737581,424.773180L280.101944,424.617786L280.715822,418.055022L285.772402,400.655665L284.109976,390.404458L293.913393,380.930257L294.325558,377.592275L289.402561,368.189408L292.371277,365.649427Z ">
   <title>
    ABRA
   </title>
  </path>
  <path class="APAYAO" d="M325.651455,364.282466L323.138377,358.711817L310.209100,345.894021L316.312354,323.878176L319.337613,321.957471L320.007081,312.217297L318.631646,299.605527L315.186776,293.025725L289.758139,279.207317L272.732550,272.598417L267.090052,267.067858L264.746277,273.659203L260.735149,276.144110L260.937880,287.547644L262.686879,299.389393L267.780531,312.250009L265.829831,317.616034L268.248793,329.975612L267.471760,332.941973L273.522496,337.447021L277.283686,347.921075L283.413906,347.623150L287.582019,350.762459L292.371277,365.649427L304.788893,373.041552L306.522333,367.035083L321.352077,370.419780L325.651455,364.282466Z ">
   <title>
    APAYAO
   </title>
  </path>
  <path class="BENGUET" d="M291.348100,492.384399L290.113906,491.158748L287.230787,471.170974L284.356698,465.399109L272.990149,455.071699L262.901709,457.383943L259.707235,460.070073L261.274760,480.150096L258.454637,486.594980L257.159322,493.851910L250.739999,499.100368L248.849056,504.704025L259.762745,535.280014L274.309765,541.552022L283.402917,539.633497L283.170110,534.692305L286.604486,525.313509L290.416037,525.388287L293.199020,511.504132L291.407108,503.478370L291.348100,492.384399Z ">
   <title>
    BENGUET
   </title>
  </path>
  <path class="IFUGAO" d="M331.759683,472.641983L331.899777,469.162504L351.643982,460.755919L354.986061,455.484141L349.634682,437.209415L336.787452,436.904467L328.312651,438.395323L316.631737,445.094838L299.089186,444.413670L291.266536,446.000337L292.768583,452.773479L290.448195,462.773731L284.356698,465.399109L287.230787,471.170974L290.113906,491.158748L291.348100,492.384399L314.074867,487.113749L317.290280,487.938639L329.121827,483.454325L331.759683,472.641983Z ">
   <title>
    IFUGAO
   </title>
  </path>
  <path class="KALINGA" d="M351.116042,385.233308L333.371570,368.461632L325.651455,364.282466L321.352077,370.419780L306.522333,367.035083L304.788893,373.041552L292.371277,365.649427L289.402561,368.189408L294.325558,377.592275L293.913393,380.930257L284.109976,390.404458L285.772402,400.655665L280.715822,418.055022L294.716392,420.305311L298.460862,424.264937L306.308943,426.997771L319.346753,425.345686L322.879947,416.130711L329.381519,411.896532L332.513504,414.498495L344.696796,416.857439L348.085357,398.141346L354.279266,392.496990L351.116042,385.233308Z ">
   <title>
    KALINGA
   </title>
  </path>
  <path class="MOUNTAIN PROVINCE" d="M349.634682,437.209415L349.371399,432.845510L344.696796,416.857439L332.513504,414.498495L329.381519,411.896532L322.879947,416.130711L319.346753,425.345686L306.308943,426.997771L298.460862,424.264937L294.716392,420.305311L280.715822,418.055022L280.101944,424.617786L276.737581,424.773180L271.244307,435.578353L273.820675,448.729688L272.990149,455.071699L284.356698,465.399109L290.448195,462.773731L292.768583,452.773479L291.266536,446.000337L299.089186,444.413670L316.631737,445.094838L328.312651,438.395323L336.787452,436.904467L349.634682,437.209415Z ">
   <title>
    MOUNTAIN PROVINCE
   </title>
  </path>
  <path class="ILOCOS NORTE" d="M259.541671,261.471903L253.968356,263.787387L245.592147,254.211222L238.606473,257.705456L240.927091,263.012833L236.546522,267.711570L224.809350,266.073669L219.827164,272.573883L224.910410,281.582418L226.757199,289.199594L223.954035,301.475963L221.302522,306.346588L222.223229,311.940409L218.560536,318.581057L221.321925,331.980446L219.485726,340.147019L228.138604,341.950914L230.118516,348.519260L228.889344,353.057067L232.741149,364.009073L234.442065,353.908783L245.652551,348.627915L249.053925,341.260433L257.117347,335.065980L267.471760,332.941973L268.248793,329.975612L265.829831,317.616034L267.780531,312.250009L262.686879,299.389393L260.937880,287.547644L260.735149,276.144110L259.541671,261.471903Z ">
   <title>
    ILOCOS NORTE
   </title>
  </path>
  <path class="ILOCOS SUR" d="M232.741149,364.009073L228.889344,353.057067L230.118516,348.519260L228.138604,341.950914L219.485726,340.147019L221.287462,348.498230L217.443963,352.999818L221.901498,360.308937L216.629376,366.254629L215.703123,378.682347L227.152327,390.129893L230.487967,397.754618L229.250857,406.759212L229.325398,421.474855L231.988476,424.759160L237.359713,441.093120L238.022616,449.357112L235.532161,455.637200L246.089014,455.424553L246.512836,464.018068L249.918734,467.256854L252.915418,475.786135L252.932798,481.272926L258.454637,486.594980L261.274760,480.150096L259.707235,460.070073L262.901709,457.383943L272.990149,455.071699L273.820675,448.729688L271.244307,435.578353L276.737581,424.773180L269.387942,427.563266L261.928064,428.066837L257.430546,422.271687L256.971431,416.832904L248.164376,409.923155L243.661973,410.544727L240.039079,404.332512L242.557955,391.020183L229.780976,387.955579L230.337440,374.228594L232.741149,364.009073Z ">
   <title>
    ILOCOS SUR
   </title>
  </path>
  <path class="LA UNION" d="M258.454637,486.594980L252.932798,481.272926L252.915418,475.786135L249.918734,467.256854L246.512836,464.018068L246.089014,455.424553L235.532161,455.637200L235.084235,459.506908L229.385691,466.467020L233.607078,481.706402L229.786351,487.012098L232.742735,502.996989L235.922920,507.683452L240.473975,528.186619L247.588865,534.153670L249.864788,538.798086L258.141725,538.779392L259.762745,535.280014L248.849056,504.704025L250.739999,499.100368L257.159322,493.851910L258.454637,486.594980Z ">
   <title>
    LA UNION
   </title>
  </path>
  <path class="PANGASINAN" d="M203.309444,522.274486L199.264888,528.814053L205.651593,530.672987L207.262120,526.605765L203.309444,522.274486Z M249.864788,538.798086L251.350539,543.059267L246.668163,551.733522L235.867966,558.815240L226.487914,559.055932L219.477907,555.140598L218.338878,545.243020L208.318447,541.735462L198.897544,534.081228L196.330724,527.972800L197.209869,520.912125L193.578268,516.909170L185.725615,520.278850L183.797053,525.049449L182.491796,539.899894L185.561658,548.015650L185.123385,566.865567L196.672327,567.606337L204.618055,581.460137L203.305199,585.853345L211.586386,584.848515L215.239882,579.042704L221.127365,582.589986L227.789444,583.316735L236.171673,598.521194L243.842363,607.427936L248.760974,604.193795L251.282364,594.528755L254.677293,590.348201L264.716044,594.734395L270.774190,590.021048L272.925912,575.852954L276.083332,582.077056L289.920058,579.714538L296.830686,586.094036L300.039878,582.693974L304.137592,564.755423L297.189877,550.757902L292.957269,542.632798L283.402917,539.633497L274.309765,541.552022L259.762745,535.280014L258.141725,538.779392L249.864788,538.798086Z ">
   <title>
    PANGASINAN
   </title>
  </path>
  <path class="BATANES" d="M300.749220,0.000000L297.686055,11.788021L300.418577,15.697130L305.084917,11.026523L305.370212,3.626449L300.749220,0.000000Z ">
   <title>
    BATANES
   </title>
  </path>
  <path class="CAGAYAN" d="M404.215690,381.230524L401.018558,375.830402L398.418369,363.194739L393.796222,352.207688L397.055919,340.392367L395.157341,326.328130L391.858193,321.671235L399.486686,311.279150L403.988411,297.362409L403.900227,292.524530L399.882366,284.069678L393.480081,279.296106L387.273292,268.265326L381.136248,267.642642L379.785284,278.889547L381.261414,284.305670L375.168453,289.038371L370.337467,295.488473L365.171353,297.357736L356.021388,296.309780L330.914172,286.888735L318.648671,281.102257L304.601021,272.857772L293.082482,267.419505L283.538998,259.633072L276.656149,256.161029L271.092650,255.791862L260.168910,258.772070L259.541671,261.471903L260.735149,276.144110L264.746277,273.659203L267.090052,267.067858L272.732550,272.598417L289.758139,279.207317L315.186776,293.025725L318.631646,299.605527L320.007081,312.217297L319.337613,321.957471L316.312354,323.878176L310.209100,345.894021L323.138377,358.711817L325.651455,364.282466L333.371570,368.461632L351.116042,385.233308L368.106406,384.333674L369.621972,382.007479L399.335483,381.974765L404.215690,381.230524Z M301.489306,225.101232L296.355607,223.265968L288.848946,226.687670L287.217513,230.786951L303.136164,228.895602L301.489306,225.101232Z M344.777150,234.173631L346.684153,227.833691L352.671508,222.285838L354.581581,217.620011L350.320902,213.129437L344.408147,211.920350L340.470251,227.173648L344.777150,234.173631Z M278.486804,210.629490L276.717249,200.231418L272.628794,204.950897L278.486804,210.629490Z M300.187026,169.307748L285.842052,166.957444L281.934425,170.881240L289.690902,179.724158L300.830374,183.466946L303.334588,180.363141L300.187026,169.307748Z M343.648513,147.510446L335.082945,147.754582L335.755624,151.171325L342.155876,156.015531L343.648513,147.510446Z ">
   <title>
    CAGAYAN
   </title>
  </path>
  <path class="ISABELA" d="M433.194161,498.644691L440.685782,468.013973L440.051886,463.010914L444.292413,457.537002L446.737613,433.099048L435.007986,429.093842L431.441420,411.997012L425.324529,404.746114L420.798095,406.718319L414.213871,402.908274L412.860215,397.168099L405.499198,386.900552L404.215690,381.230524L399.335483,381.974765L369.621972,382.007479L368.106406,384.333674L351.116042,385.233308L354.279266,392.496990L348.085357,398.141346L344.696796,416.857439L349.371399,432.845510L349.634682,437.209415L354.986061,455.484141L351.643982,460.755919L331.899777,469.162504L331.759683,472.641983L338.330954,480.115045L340.949937,486.940826L356.474160,487.596298L360.459517,492.941726L381.703447,516.195275L400.280114,504.577837L411.664606,498.503315L416.584990,498.601461L433.194161,498.644691Z ">
   <title>
    ISABELA
   </title>
  </path>
  <path class="NUEVA VIZCAYA" d="M340.949937,486.940826L338.330954,480.115045L331.759683,472.641983L329.121827,483.454325L317.290280,487.938639L314.074867,487.113749L291.348100,492.384399L291.407108,503.478370L293.199020,511.504132L290.416037,525.388287L286.604486,525.313509L283.170110,534.692305L283.402917,539.633497L292.957269,542.632798L297.189877,550.757902L311.342220,547.030683L324.279164,551.020794L330.626301,555.098536L334.265814,571.977348L346.908745,592.251534L361.557551,573.513803L344.428522,558.476402L336.865226,530.050226L350.379213,522.758206L350.003412,512.158438L341.784622,509.451247L340.949937,486.940826Z ">
   <title>
    NUEVA VIZCAYA
   </title>
  </path>
  <path class="QUIRINO" d="M340.949937,486.940826L341.784622,509.451247L350.003412,512.158438L350.379213,522.758206L336.865226,530.050226L344.428522,558.476402L361.557551,573.513803L366.447036,566.539581L393.514316,535.812807L411.237568,503.242353L416.584990,498.601461L411.664606,498.503315L400.280114,504.577837L381.703447,516.195275L360.459517,492.941726L356.474160,487.596298L340.949937,486.940826Z ">
   <title>
    QUIRINO
   </title>
  </path>
  <path class="AURORA" d="M433.194161,498.644691L416.584990,498.601461L411.237568,503.242353L393.514316,535.812807L366.447036,566.539581L361.557551,573.513803L346.908745,592.251534L360.441696,624.979659L359.186653,636.114492L358.292106,658.122344L364.835650,679.976543L363.767822,674.928414L368.314740,663.737619L367.636903,656.610448L370.494047,655.381302L363.418687,644.583020L362.562116,639.271498L371.748112,631.426882L371.728878,618.708856L383.062279,596.009124L381.642565,592.064589L375.593991,591.328494L373.138441,587.129244L371.538694,575.762987L380.235036,562.286578L386.840080,555.145272L396.043253,552.586460L401.268291,547.985272L409.525723,546.515415L413.087904,541.942269L417.891240,540.530834L418.327055,532.848560L431.658237,535.587305L430.216220,528.002010L432.784212,516.350673L430.584952,508.962854L433.194161,498.644691Z ">
   <title>
    AURORA
   </title>
  </path>
  <path class="BATAAN" d="M288.506731,696.467000L280.808914,692.724700L275.385165,685.681733L273.831465,691.341345L267.514456,690.933583L261.860892,703.344031L258.417690,707.698541L259.402940,716.701969L266.727284,723.313735L271.859405,723.435244L275.498826,728.054942L276.452988,742.703801L289.282326,747.601538L296.410491,747.222991L299.160136,737.876158L293.711649,720.055172L289.695667,714.337199L285.836582,700.746745L288.506731,696.467000Z ">
   <title>
    BATAAN
   </title>
  </path>
  <path class="BULACAN" d="M358.292106,658.122344L351.249780,656.726119L340.736994,647.995898L328.303319,649.810411L321.175350,653.421910L321.879071,662.233905L325.012699,664.122019L325.366968,673.148966L319.442327,680.919425L310.071705,687.979930L305.928243,687.381721L300.906190,706.731132L313.635380,707.799021L317.910660,706.824602L325.899257,714.577882L328.951183,710.309842L336.652141,707.498750L338.361568,704.600028L344.627007,707.094495L347.029501,705.846678L352.953847,700.604203L358.882278,698.379625L366.867860,692.351989L364.835650,679.976543L358.292106,658.122344Z ">
   <title>
    BULACAN
   </title>
  </path>
  <path class="NUEVA ECIJA" d="M346.908745,592.251534L334.265814,571.977348L330.626301,555.098536L324.279164,551.020794L311.342220,547.030683L297.189877,550.757902L304.137592,564.755423L300.039878,582.693974L296.830686,586.094036L289.920058,579.714538L276.083332,582.077056L278.491869,591.092476L283.840482,603.034739L288.380924,607.246833L294.322555,608.817167L292.233293,615.417470L298.946813,630.392850L298.336859,641.053300L301.973973,647.770398L304.300915,653.858889L310.842789,654.981712L321.175350,653.421910L328.303319,649.810411L340.736994,647.995898L351.249780,656.726119L358.292106,658.122344L359.186653,636.114492L360.441696,624.979659L346.908745,592.251534Z ">
   <title>
    NUEVA ECIJA
   </title>
  </path>
  <path class="PAMPANGA" d="M301.973973,647.770398L290.385341,647.419880L278.336612,650.356051L263.514205,659.543106L264.016647,666.270683L270.464002,673.653708L270.949884,679.660361L275.385165,685.681733L280.808914,692.724700L288.506731,696.467000L300.906190,706.731132L305.928243,687.381721L310.071705,687.979930L319.442327,680.919425L325.366968,673.148966L325.012699,664.122019L321.879071,662.233905L321.175350,653.421910L310.842789,654.981712L304.300915,653.858889L301.973973,647.770398Z ">
   <title>
    PAMPANGA
   </title>
  </path>
  <path class="TARLAC" d="M301.973973,647.770398L298.336859,641.053300L298.946813,630.392850L292.233293,615.417470L294.322555,608.817167L288.380924,607.246833L283.840482,603.034739L278.491869,591.092476L276.083332,582.077056L272.925912,575.852954L270.774190,590.021048L264.716044,594.734395L254.677293,590.348201L251.282364,594.528755L248.760974,604.193795L243.842363,607.427936L238.113245,621.631026L238.372015,636.962747L252.327554,645.164880L258.277603,651.199629L263.514205,659.543106L278.336612,650.356051L290.385341,647.419880L301.973973,647.770398Z ">
   <title>
    TARLAC
   </title>
  </path>
  <path class="ZAMBALES" d="M243.842363,607.427936L236.171673,598.521194L227.789444,583.316735L221.127365,582.589986L215.239882,579.042704L211.586386,584.848515L203.305199,585.853345L202.513848,593.089280L210.348435,600.560060L208.335699,608.854556L215.716186,620.644896L210.415335,630.404534L215.887148,635.573524L225.272721,649.225047L234.979872,678.047995L236.108014,694.418842L243.541335,705.341942L250.666806,709.161337L252.758579,700.607708L252.190620,693.550741L261.860892,703.344031L267.514456,690.933583L273.831465,691.341345L275.385165,685.681733L270.949884,679.660361L270.464002,673.653708L264.016647,666.270683L263.514205,659.543106L258.277603,651.199629L252.327554,645.164880L238.372015,636.962747L238.113245,621.631026L243.842363,607.427936Z ">
   <title>
    ZAMBALES
   </title>
  </path>
  <path class="BATANGAS" d="M303.926814,770.948638L300.531268,771.496591L303.813083,782.811982L307.221131,788.124419L307.920490,800.778668L311.292897,819.058378L313.867189,812.895440L321.237954,804.087388L335.944620,808.137997L339.815940,812.478347L342.595710,822.169635L337.762061,829.902787L342.580280,831.485867L346.134218,823.266694L352.936889,823.294734L356.908089,828.491450L356.951919,836.446571L360.149502,841.358199L369.305720,838.046005L382.117607,843.857239L391.917355,835.153237L398.458907,834.482619L393.978665,824.806549L395.948568,818.657641L391.056554,815.220417L379.060087,811.662852L372.931304,808.520041L373.450004,801.115148L368.124990,793.706735L363.551582,781.135414L348.635596,779.422626L339.441734,786.915189L328.800180,786.708393L320.820963,781.863290L313.779703,780.172701L310.722968,773.473428L303.926814,770.948638Z M339.360261,790.454956L341.667097,786.811207L350.084131,786.422150L355.891926,795.011766L355.392517,801.527570L351.304494,804.226420L351.373162,809.044622L342.333035,805.124868L341.017574,792.128312L339.360261,790.454956Z ">
   <title>
    BATANGAS
   </title>
  </path>
  <path class="CAVITE" d="M335.975186,741.010855L327.881017,743.431685L323.894873,750.577330L312.681052,763.104367L305.618819,764.308933L303.926814,770.948638L310.722968,773.473428L313.779703,780.172701L320.820963,781.863290L328.800180,786.708393L339.441734,786.915189L348.635596,779.422626L346.224526,766.812698L346.346507,758.279092L342.024403,755.958751L341.174090,750.916151L335.975186,741.010855Z ">
   <title>
    CAVITE
   </title>
  </path>
  <path class="LAGUNA" d="M373.450004,801.115148L382.203620,795.253612L393.964786,789.788133L396.917566,786.600906L399.796974,777.335968L403.262878,773.864823L406.662926,765.617480L403.809480,751.337926L396.781092,749.530487L384.597819,730.002597L379.813554,731.723589L375.064570,740.708251L380.886823,756.770753L382.229118,751.794751L388.390127,752.986469L389.320978,760.245422L378.097340,766.947057L373.191304,774.362537L362.433839,775.412877L361.507418,769.428622L346.399501,752.163950L342.024403,755.958751L346.346507,758.279092L346.224526,766.812698L348.635596,779.422626L363.551582,781.135414L368.124990,793.706735L373.450004,801.115148Z ">
   <title>
    LAGUNA
   </title>
  </path>
  <path class="QUEZON" d="M442.223160,773.653353L437.842700,774.401092L444.364786,784.154404L451.264126,787.255176L464.961145,797.247961L467.770113,794.588829L460.593848,786.885981L454.873183,783.661365L442.223160,773.653353Z M424.227744,763.780840L420.632326,765.694591L422.580825,771.371578L427.865045,766.805687L424.227744,763.780840Z M454.559081,698.057154L445.545962,698.563059L447.257484,702.293667L460.443183,708.539766L460.407140,704.513569L454.559081,698.057154Z M425.036428,672.550753L420.871255,676.530267L415.418898,675.497416L413.742562,681.398460L415.267890,687.232169L421.820207,694.291489L431.061549,712.200259L428.217402,712.957360L430.126660,722.004001L436.020616,721.836925L441.129919,713.785731L437.134168,700.843719L433.921643,698.820101L431.099546,691.140385L435.887596,689.429884L433.352210,682.237356L437.838767,679.225724L431.969590,674.707590L425.036428,672.550753Z M370.494047,655.381302L367.636903,656.610448L368.314740,663.737619L363.767822,674.928414L364.835650,679.976543L366.867860,692.351989L369.052474,705.311565L378.499362,719.079589L384.597819,730.002597L396.781092,749.530487L403.809480,751.337926L406.662926,765.617480L403.262878,773.864823L399.796974,777.335968L396.917566,786.600906L393.964786,789.788133L382.203620,795.253612L373.450004,801.115148L372.931304,808.520041L379.060087,811.662852L391.056554,815.220417L395.948568,818.657641L398.747472,814.518251L419.156942,806.174030L423.449685,800.759975L439.323841,813.387308L446.585437,814.653777L449.353664,818.749939L465.249489,825.555446L474.805862,840.087065L478.726934,844.240448L487.975824,845.401759L489.385846,848.417194L497.339914,853.422274L499.544548,858.125922L506.723370,865.563423L511.915737,873.524317L512.942068,885.303238L518.807253,893.622770L522.541399,895.584359L532.031903,888.278924L525.830045,865.320414L513.196855,846.993012L505.012576,839.238862L503.014939,829.215812L506.559005,827.304431L505.095784,819.641374L497.077945,808.516536L505.636967,803.223990L529.697689,795.226740L491.736779,779.771960L484.456226,789.935343L479.115969,785.176701L474.322819,782.518729L471.400788,773.596104L463.703127,781.057135L468.082027,787.313593L478.034938,793.426334L480.200678,801.889753L470.551725,799.576452L475.104658,807.222024L464.630998,807.264085L455.780439,804.527850L441.064408,797.307546L435.443703,790.471610L430.439585,788.159470L420.153913,780.212425L418.102807,775.687438L419.924728,768.699575L415.073579,758.732411L408.368848,751.670906L404.196859,743.113893L397.971792,721.725931L407.674207,712.683962L394.174607,699.577205L388.054264,683.377693L380.013695,671.783125L377.685243,661.870536L370.494047,655.381302Z ">
   <title>
    QUEZON
   </title>
  </path>
  <path class="RIZAL" d="M362.678207,747.755760L362.708613,737.882000L371.867794,742.424564L374.638490,752.262092L372.653755,759.142501L380.886823,756.770753L375.064570,740.708251L379.813554,731.723589L384.597819,730.002597L378.499362,719.079589L369.052474,705.311565L366.867860,692.351989L358.882278,698.379625L352.953847,700.604203L347.029501,705.846678L348.464384,710.272454L346.656900,717.642502L348.491483,727.528012L347.818229,733.415372L349.424838,735.192443L357.352796,739.796934L362.678207,747.755760Z ">
   <title>
    RIZAL
   </title>
  </path>
  <path class="MARINDUQUE" d="M442.793994,848.692917L442.558672,853.242352L437.990317,860.445031L439.642063,872.590835L445.299217,880.481618L455.238692,885.188743L458.881986,889.878339L463.919344,890.988233L464.629083,881.352010L472.871369,870.638583L469.826201,866.478214L470.336964,861.186912L456.865599,850.174347L454.692819,852.895362L446.521261,852.359103L442.793994,848.692917Z ">
   <title>
    MARINDUQUE
   </title>
  </path>
  <path class="OCCIDENTAL MINDORO" d="M385.588605,1012.186216L378.863144,996.693542L374.922606,1001.587505L381.633041,1010.301768L385.588605,1012.186216Z M342.540258,855.152553L330.477707,858.840932L320.403375,855.591840L300.572224,854.236591L294.682478,851.735221L287.365539,854.583582L283.133439,861.668258L286.863214,867.099758L299.740113,864.377583L304.416522,876.103953L311.215202,886.770636L322.272784,890.860888L333.205739,906.470642L336.767907,913.096099L340.677691,925.362111L344.526054,945.516448L349.476958,946.094755L359.689030,958.475193L359.171075,968.388173L367.212047,980.696137L371.426103,983.105154L378.026299,991.208420L384.120444,1002.296656L391.250595,1002.483583L397.443116,1005.814373L395.136998,991.055374L393.397881,972.860400L385.059963,908.101596L356.172651,891.571219L334.929549,881.395238L344.108046,867.110273L342.540258,855.152553Z M256.154637,812.676963L257.208334,820.482570L270.535872,829.609537L275.839553,827.034547L268.917015,816.916831L256.154637,812.676963Z ">
   <title>
    OCCIDENTAL MINDORO
   </title>
  </path>
  <path class="ORIENTAL MINDORO" d="M397.443116,1005.814373L399.175515,996.999633L404.843063,995.899105L405.746261,992.162914L412.774080,984.676507L410.839229,978.739248L412.969307,969.508566L418.069541,967.564525L423.782318,959.802377L420.865669,949.139338L413.473189,940.784840L413.218645,920.873494L411.095217,913.694271L412.444949,906.379514L417.030662,903.088396L414.170263,897.093813L405.147905,896.717618L403.709061,888.323319L397.085760,885.636206L387.446469,873.004418L376.832888,864.703543L362.081535,866.249224L352.185784,858.843269L348.301753,854.060175L342.540258,855.152553L344.108046,867.110273L334.929549,881.395238L356.172651,891.571219L385.059963,908.101596L393.397881,972.860400L395.136998,991.055374L397.443116,1005.814373Z M393.196306,886.022917L396.467627,887.720472L398.751707,894.757197L395.077444,900.172303L391.228424,899.574130L393.196306,886.022917Z ">
   <title>
    ORIENTAL MINDORO
   </title>
  </path>
  <path class="PALAWAN" d="M10.043873,1487.540834L3.553489,1488.133166L5.065356,1493.994575L0.470829,1495.632546L2.212687,1504.543247L0.264544,1507.001371L8.658063,1521.646148L12.799708,1517.310545L14.853944,1510.583412L12.872435,1493.066937L10.043873,1487.540834Z M36.855026,1461.496900L30.596230,1462.824097L31.026230,1475.245550L33.603425,1477.757413L39.831175,1474.363477L39.520290,1466.465713L36.855026,1461.496900Z M26.464764,1459.568024L19.876555,1465.991380L22.139084,1469.109594L29.346516,1465.173564L26.464764,1459.568024Z M271.669669,1187.981075L269.146158,1199.587947L264.691946,1201.936192L266.430501,1211.067482L274.799139,1210.228656L279.801082,1203.067089L285.234142,1203.388366L286.800450,1193.991880L279.548261,1193.661256L271.669669,1187.981075Z M395.287627,1158.062586L389.114433,1168.184564L396.160924,1171.038672L397.275973,1164.754494L395.287627,1158.062586Z M206.216972,1154.771542L209.089905,1159.954032L212.114070,1174.784179L215.351792,1173.712866L218.674532,1181.552027L218.346880,1195.907861L213.514108,1201.312330L206.495590,1213.724156L200.750032,1219.649684L196.449950,1215.852766L187.311729,1218.819035L191.335896,1225.158137L185.079596,1231.612902L183.303286,1241.021092L176.024405,1240.494196L170.667054,1242.940584L172.085709,1261.405335L163.382178,1260.470706L156.079184,1265.390798L156.197619,1272.574616L149.086504,1283.241116L144.463879,1293.116693L137.085968,1297.977961L122.370260,1321.230532L115.422030,1326.928313L114.559256,1333.964965L108.890142,1335.751292L109.305917,1341.142986L105.623155,1343.105727L97.405938,1354.136802L88.731767,1351.601593L75.064333,1363.201639L73.120675,1373.821490L64.757382,1373.543434L60.839963,1381.728553L53.336399,1389.167132L46.023662,1399.094199L43.035870,1409.196520L34.914396,1413.811321L26.853938,1429.638347L24.204559,1437.378372L23.682280,1448.997180L20.191331,1457.946413L22.794218,1462.623148L28.132450,1453.078076L39.335681,1442.590186L47.206682,1440.336523L51.863302,1442.147398L56.106127,1433.053304L55.247385,1426.388121L57.472301,1421.317678L64.453505,1422.514022L70.777314,1419.129443L76.485709,1418.635250L82.323307,1408.677793L96.715051,1396.811336L100.846065,1395.974831L109.201022,1376.213002L109.678420,1370.939292L115.599449,1363.628068L120.996476,1363.707513L135.150228,1359.244607L140.724054,1350.127200L147.185810,1347.511380L151.176165,1336.452271L161.750768,1317.545727L165.174097,1313.909992L168.566142,1305.041467L167.325784,1296.198650L171.349328,1297.180017L170.971489,1288.083687L167.439438,1284.009852L167.686261,1273.119039L174.011573,1272.381848L178.300226,1267.900285L190.142441,1266.477308L210.722465,1259.395883L213.454051,1255.128134L213.655528,1243.390373L221.827471,1227.458486L225.894510,1224.166265L246.537009,1220.181252L248.192688,1214.356196L260.079645,1203.694456L251.160607,1193.068938L250.954384,1185.013642L244.847196,1186.544090L246.042142,1178.714274L243.494598,1166.687997L238.337749,1168.943946L232.770028,1162.151566L231.491058,1149.136929L242.422081,1145.549142L237.565053,1140.745175L229.527013,1136.181875L235.839498,1124.900965L236.478062,1114.504442L234.196042,1109.803282L224.858616,1105.683926L221.061199,1107.400130L221.960047,1120.241865L219.663238,1124.082001L222.941394,1129.527353L223.954236,1142.058322L222.837970,1148.814484L216.106680,1149.593726L216.627923,1159.362882L226.902230,1164.199561L231.904399,1177.361405L228.713584,1179.386035L225.130238,1173.423132L216.624062,1167.332888L210.249818,1162.174932L211.564491,1157.192218L206.216972,1154.771542Z M260.096048,1087.310376L260.743996,1093.425158L249.114804,1091.950788L250.625303,1096.264081L257.859687,1097.563208L260.962209,1103.010901L264.910666,1094.379644L264.778995,1088.045224L260.096048,1087.310376Z M263.718971,1033.721238L259.868077,1039.239048L263.293677,1049.990767L269.520985,1060.708597L269.619174,1068.203129L275.813055,1068.258038L280.461293,1063.087220L281.350111,1055.056443L278.050748,1052.132230L279.348088,1044.936770L274.029386,1037.750653L263.718971,1033.721238Z M300.622244,1036.213190L297.785080,1031.952454L292.514939,1037.939915L298.659699,1040.625801L300.622244,1036.213190Z M257.887408,992.703832L254.240903,994.324250L253.928329,1002.482414L267.673343,1023.377236L268.476716,1028.246652L274.282420,1031.652205L278.123526,1028.824954L282.524958,1035.040232L285.836432,1027.684707L295.103353,1032.110173L306.164033,1030.106563L306.177036,1023.697347L301.668548,1016.361675L296.925304,1015.592942L293.936169,1007.624052L287.837858,1016.743705L275.715557,1007.732703L270.322996,1000.912234L262.968863,999.141108L257.887408,992.703832Z ">
   <title>
    PALAWAN
   </title>
  </path>
  <path class="ROMBLON" d="M528.079384,971.693275L521.017306,972.346351L515.102209,977.000829L516.427413,982.454416L526.494687,987.288805L530.920635,993.924695L537.798658,998.339661L541.739607,994.469118L543.559261,983.456810L536.465132,972.817173L528.079384,971.693275Z M498.679996,957.600140L496.941708,966.824995L498.497404,973.026297L504.222379,970.970101L498.679996,957.600140Z M480.424264,952.099802L475.949035,957.538220L469.777439,960.114311L469.001822,963.908933L472.247661,972.367380L471.017397,982.040841L465.885340,984.731416L467.922160,996.767144L475.685624,1002.373763L471.162439,1009.837957L476.103229,1016.029881L479.525019,1009.573924L482.648855,987.806358L482.401274,972.141900L483.906919,962.582919L480.424264,952.099802Z ">
   <title>
    ROMBLON
   </title>
  </path>
  <path class="Isabela City" d="M533.608588,1645.583214L528.704931,1646.480480L524.003624,1653.905127L521.300271,1654.379464L523.293854,1665.411872L538.265059,1665.928268L532.920360,1651.581347L533.608588,1645.583214Z ">
   <title>
    Isabela City
   </title>
  </path>
  <path class="ZAMBOANGA DEL NORTE" d="M673.805705,1425.277063L669.873500,1425.571476L660.099898,1414.205039L657.144862,1425.052749L652.859045,1424.056184L649.073272,1437.314115L637.011749,1435.767278L624.205890,1438.033792L616.565530,1450.005429L618.298827,1457.394972L613.116909,1462.392991L620.172434,1473.135585L612.356968,1481.633862L594.598039,1485.167997L588.729331,1484.034737L571.866611,1490.809763L566.283719,1489.795670L554.667584,1493.024878L544.967081,1499.524186L542.216247,1504.286218L542.914222,1509.923316L538.354715,1513.099953L533.434442,1524.439580L536.147584,1539.889335L534.178954,1551.238322L529.481914,1563.719409L527.618333,1574.296150L531.136647,1581.876170L525.855461,1583.754819L517.798581,1593.373549L515.700993,1598.925379L534.767376,1597.933480L541.036906,1589.335855L542.644237,1572.174493L546.301694,1561.829078L547.246710,1552.287467L551.717306,1541.418656L558.637347,1528.029802L564.007397,1525.695515L575.747552,1514.198165L587.868340,1506.770046L597.916548,1504.481326L614.372211,1507.471032L619.856254,1508.446572L630.136597,1499.316227L640.360096,1498.748428L641.955540,1486.553612L641.327326,1470.456653L655.304809,1471.228905L660.690401,1473.375088L677.244193,1473.378593L675.753212,1443.889343L673.805705,1425.277063Z ">
   <title>
    ZAMBOANGA DEL NORTE
   </title>
  </path>
  <path class="ZAMBOANGA DEL SUR" d="M559.570233,1562.028860L546.301694,1561.829078L542.644237,1572.174493L541.036906,1589.335855L534.767376,1597.933480L515.700993,1598.925379L519.306815,1617.197822L523.818012,1622.434211L538.871256,1628.962757L544.053725,1625.694979L549.487489,1611.330545L548.400435,1607.362947L553.329706,1600.721079L552.145124,1591.479712L554.767628,1588.360313L557.580328,1577.602478L560.771327,1578.144576L565.006352,1570.975803L559.570233,1562.028860Z M677.244193,1473.378593L660.690401,1473.375088L655.304809,1471.228905L641.327326,1470.456653L641.955540,1486.553612L640.360096,1498.748428L630.136597,1499.316227L619.856254,1508.446572L614.372211,1507.471032L614.907394,1518.273234L633.599576,1520.419421L635.389073,1532.891146L639.742404,1535.010464L645.636925,1546.520676L636.110760,1549.706664L638.143792,1555.013140L642.878517,1557.298360L649.118893,1552.059646L656.600876,1552.792178L656.355165,1561.570881L669.811171,1573.693300L673.370883,1571.061090L672.219831,1562.317433L667.442475,1559.407165L666.555839,1554.030589L660.857989,1550.924046L665.480190,1543.488905L673.530999,1540.573966L674.412698,1530.027614L668.964635,1526.020306L671.631962,1520.246511L681.680937,1515.068557L684.312377,1516.324491L690.942221,1502.902939L689.037656,1495.271538L680.209236,1491.191800L677.244193,1473.378593Z ">
   <title>
    ZAMBOANGA DEL SUR
   </title>
  </path>
  <path class="ZAMBOANGA SIBUGAY" d="M617.766097,1564.780237L614.972026,1568.649691L607.243841,1564.694950L605.851869,1575.020505L607.917362,1581.858645L616.917855,1578.729901L621.044734,1571.267882L617.766097,1564.780237Z M614.372211,1507.471032L597.916548,1504.481326L587.868340,1506.770046L575.747552,1514.198165L564.007397,1525.695515L558.637347,1528.029802L551.717306,1541.418656L547.246710,1552.287467L546.301694,1561.829078L559.570233,1562.028860L573.497855,1550.366761L571.014369,1543.645459L574.559105,1534.041934L588.475151,1523.483902L595.570055,1524.301720L598.506708,1527.922317L605.029291,1528.459740L602.119467,1535.023316L604.005312,1545.879272L608.742158,1552.290972L607.225870,1563.174975L614.053088,1560.255361L614.163432,1551.779251L624.935466,1560.161896L628.708823,1551.220797L628.701510,1542.259841L631.358858,1534.864425L635.389073,1532.891146L633.599576,1520.419421L614.907394,1518.273234L614.372211,1507.471032Z ">
   <title>
    ZAMBOANGA SIBUGAY
   </title>
  </path>
  <path class="Manila" d="M335.698340,722.282071L332.108594,722.532100L336.194840,731.147628L339.072161,728.830921L335.698340,722.282071Z ">
   <title>
    Manila
   </title>
  </path>
  <path class="Ncr-2Nd Dist." d="M347.029501,705.846678L344.627007,707.094495L338.380768,710.085515L335.698340,722.282071L339.072161,728.830921L347.818229,733.415372L348.491483,727.528012L346.656900,717.642502L348.464384,710.272454L347.029501,705.846678Z ">
   <title>
    Ncr-2Nd Dist.
   </title>
  </path>
  <path class="Ncr-3rd Dist." d="M344.627007,707.094495L338.361568,704.600028L336.652141,707.498750L328.951183,710.309842L325.899257,714.577882L332.108594,722.532100L335.698340,722.282071L338.380768,710.085515L344.627007,707.094495Z ">
   <title>
    Ncr-3rd Dist.
   </title>
  </path>
  <path class="Ncr-4th Dist." d="M347.818229,733.415372L339.072161,728.830921L336.194840,731.147628L335.975186,741.010855L341.174090,750.916151L342.024403,755.958751L346.399501,752.163950L344.843999,744.414271L345.487389,737.217205L349.424838,735.192443L347.818229,733.415372Z ">
   <title>
    Ncr-4th Dist.
   </title>
  </path>
  <path class="ALBAY" d="M680.481321,886.796338L675.528264,891.176331L685.455455,893.505939L686.700710,888.983414L680.481321,886.796338Z M659.513092,879.680156L660.042744,885.841829L669.279875,887.827956L670.326524,881.123021L659.513092,879.680156Z M648.434684,872.360677L649.487106,882.092720L653.288216,880.856646L656.814911,875.277955L648.434684,872.360677Z M661.057495,899.895414L654.331330,896.641678L646.711292,908.297872L645.229558,900.758793L641.246514,893.563186L643.533311,885.714483L648.776176,882.673370L637.462492,875.406470L631.303208,861.547922L622.358292,855.932990L619.940142,851.832191L614.956232,852.704926L615.592428,858.729942L620.276432,867.305381L611.129656,872.900438L607.697903,871.315036L600.915760,875.404133L597.832177,877.518779L592.698522,884.320689L596.313864,890.401742L593.743168,896.506154L596.586897,908.245298L599.371873,912.823884L604.173193,908.734818L611.974575,911.135684L615.519257,916.117333L620.553973,911.961675L640.727231,910.431196L645.014398,915.456073L653.674354,909.385564L659.068791,909.094656L661.057495,899.895414Z ">
   <title>
    ALBAY
   </title>
  </path>
  <path class="CAMARINES NORTE" d="M559.109381,819.609829L559.976438,812.005173L562.730985,809.982792L559.525010,798.655804L553.305634,792.793096L551.914089,783.796893L547.910163,782.605186L539.513435,772.361165L531.018658,763.998152L524.386852,763.042445L522.593165,759.469638L511.499948,757.761514L505.735459,760.036287L495.140714,756.551104L486.361143,761.133366L481.172764,767.602499L479.553453,773.911557L482.490008,784.013035L479.115969,785.176701L484.456226,789.935343L491.736779,779.771960L529.697689,795.226740L545.511117,805.032570L559.109381,819.609829Z ">
   <title>
    CAMARINES NORTE
   </title>
  </path>
  <path class="CAMARINES SUR" d="M619.940142,851.832191L612.121392,846.109761L611.490080,841.579012L615.475192,828.679550L623.047698,831.279074L626.778292,829.694825L638.089876,833.480197L644.414025,827.341817L644.209897,819.387846L637.096995,817.011466L630.195462,812.134857L614.207172,809.182485L607.762146,804.942608L597.475981,803.214644L590.006571,792.797769L584.914821,789.011188L580.546477,790.655039L575.576366,800.653656L582.512753,805.497566L582.168869,809.647481L587.110929,818.520947L583.000768,826.476088L577.523370,828.817412L567.001565,827.411917L560.251816,824.534329L559.109381,819.609829L545.511117,805.032570L529.697689,795.226740L505.636967,803.223990L508.274583,808.270018L512.783109,809.090187L521.560798,816.879445L538.279387,827.583661L541.377672,832.665875L538.056840,838.390660L546.434488,846.737149L555.502479,852.343915L563.149743,854.243601L575.678674,860.589902L580.717670,865.559918L582.755607,873.620119L592.698522,884.320689L597.832177,877.518779L600.915760,875.404133L607.697903,871.315036L611.129656,872.900438L620.276432,867.305381L615.592428,858.729942L614.956232,852.704926L619.940142,851.832191Z ">
   <title>
    CAMARINES SUR
   </title>
  </path>
  <path class="CATANDUANES" d="M673.830082,785.744514L669.488192,791.440162L665.772239,791.609571L669.257005,804.048834L670.843301,820.725582L668.081542,831.296598L661.347856,836.446571L666.810972,842.894542L675.053672,847.465013L680.596101,853.206134L684.753297,845.152907L688.816953,843.925001L695.625727,846.296693L694.475253,838.597453L701.195816,835.980410L697.456162,829.475180L699.281512,819.249984L698.077076,812.504050L691.239803,806.935783L683.962209,803.471677L682.052878,797.208237L673.830082,785.744514Z ">
   <title>
    CATANDUANES
   </title>
  </path>
  <path class="MASBATE" d="M600.150373,962.334072L595.764334,960.143519L599.308376,976.435376L603.648099,982.443902L602.236712,991.737656L598.826821,1002.298993L606.493386,1011.512114L600.375559,1015.258812L599.716959,1028.870517L595.424721,1038.485504L597.609633,1041.587299L610.387691,1027.444040L612.983827,1019.655075L616.231670,1017.976247L624.213777,1005.516460L632.460870,1005.703386L641.746558,1019.551098L655.468261,1032.461827L655.779485,1038.420080L667.539275,1040.840766L676.968874,1046.413481L686.691970,1055.369543L691.239547,1062.518267L691.374514,1046.786164L681.966003,1031.732816L682.583557,1027.590076L679.224885,1020.797660L671.139943,1010.910446L664.928346,1007.768920L658.637924,1001.981219L655.783196,1004.851704L646.818819,991.842802L637.766639,988.246804L627.425012,977.183083L618.241126,969.953686L611.267132,971.404706L607.862918,965.773531L600.150373,962.334072Z M635.704995,950.707192L632.858409,959.824574L641.291697,970.611435L643.764641,976.156154L656.423960,990.846250L656.919489,987.511949L652.055095,971.995863L645.874913,958.541786L638.304842,954.449246L635.704995,950.707192Z M564.343646,896.136969L559.219482,902.733231L560.034920,909.572492L564.643463,912.766637L572.208937,913.630014L579.711823,924.013890L588.867781,932.010911L594.965350,932.952561L595.542792,925.828263L585.399651,923.108456L578.163037,910.383296L568.878026,897.652264L564.343646,896.136969Z ">
   <title>
    MASBATE
   </title>
  </path>
  <path class="SORSOGON" d="M615.519257,916.117333L623.751449,919.970396L628.473850,925.181024L633.849730,927.569032L639.179836,925.879668L644.873359,931.579809L649.880326,929.122872L660.468288,916.125511L663.394564,918.706293L671.326340,916.845186L673.917080,923.127149L671.966606,927.692872L658.132301,928.923093L653.624315,933.674571L657.535844,946.909058L660.961659,953.851078L664.289257,955.410753L673.683848,966.515397L683.565529,967.891648L687.335964,953.324177L686.465419,929.592529L683.362162,925.891351L684.764843,913.125307L688.275936,912.222207L687.109939,905.574552L680.756699,904.757906L678.299018,912.282959L670.455055,907.475385L666.695471,902.336007L661.057495,899.895414L659.068791,909.094656L653.674354,909.385564L645.014398,915.456073L640.727231,910.431196L620.553973,911.961675L615.519257,916.117333Z ">
   <title>
    SORSOGON
   </title>
  </path>
  <path class="AKLAN" d="M519.669353,1062.332510L513.875467,1061.722666L507.507665,1056.244588L496.710485,1050.314381L489.720440,1049.814356L475.958740,1039.900297L467.248378,1041.722820L467.608553,1051.947641L464.739297,1057.164026L472.164203,1051.663749L480.135869,1050.488455L490.577735,1055.957190L496.060281,1056.904668L499.403287,1062.723884L496.317054,1071.744192L497.995614,1078.094972L497.865992,1091.921581L501.555043,1095.681108L506.917669,1110.775292L514.217398,1108.230777L517.806155,1104.349750L519.971229,1095.920606L525.421605,1091.505673L535.358124,1091.579274L540.547790,1084.562578L541.471539,1080.399992L534.176561,1077.361291L532.958681,1081.498176L527.042254,1077.700093L526.062832,1070.315383L519.669353,1062.332510Z ">
   <title>
    AKLAN
   </title>
  </path>
  <path class="ANTIQUE" d="M506.917669,1110.775292L501.555043,1095.681108L497.865992,1091.921581L497.995614,1078.094972L496.317054,1071.744192L499.403287,1062.723884L496.060281,1056.904668L490.577735,1055.957190L480.135869,1050.488455L472.164203,1051.663749L464.739297,1057.164026L472.543943,1057.418712L491.804878,1063.754310L492.710382,1071.010511L489.905773,1098.474467L491.850268,1106.488871L489.841288,1112.039371L492.463128,1115.502153L491.391649,1123.009520L494.959471,1142.579375L490.312649,1152.535454L484.983142,1175.210601L490.042164,1181.391972L491.565838,1187.663303L490.456530,1200.968855L487.572415,1210.935466L492.206676,1214.852716L499.106864,1208.857093L497.099741,1206.694603L496.947114,1188.030143L510.387175,1175.756188L511.591463,1167.381956L522.438234,1153.999309L522.991661,1145.488391L513.195923,1131.865081L509.007110,1122.889187L506.917669,1110.775292Z M411.773251,1017.380421L411.722600,1026.123877L417.883931,1028.708125L411.773251,1017.380421Z ">
   <title>
    ANTIQUE
   </title>
  </path>
  <path class="CAPIZ" d="M594.367136,1088.863021L592.879245,1085.545103L574.438645,1097.160152L570.555948,1091.469456L573.190179,1086.595388L567.395461,1077.348440L556.334433,1075.933651L556.331603,1079.367231L549.524564,1081.622014L548.290115,1086.438838L540.547790,1084.562578L535.358124,1091.579274L525.421605,1091.505673L519.971229,1095.920606L517.806155,1104.349750L514.217398,1108.230777L506.917669,1110.775292L509.007110,1122.889187L513.195923,1131.865081L520.614639,1120.621556L527.509618,1124.756098L538.693046,1126.719977L543.860270,1123.924283L545.708353,1119.029190L554.636857,1121.923020L566.600944,1120.821332L568.345106,1124.857739L575.033550,1124.403278L576.826699,1115.146996L583.744242,1111.181853L582.419031,1104.173340L587.685567,1102.225816L591.813307,1096.710364L594.367136,1088.863021Z ">
   <title>
    CAPIZ
   </title>
  </path>
  <path class="GUIMARAS" d="M559.992960,1175.661557L556.165497,1179.464310L556.257805,1184.299823L548.488291,1192.538538L547.095100,1197.566820L548.499868,1204.259904L544.391691,1204.780958L548.802722,1215.952070L554.127529,1211.377077L560.152134,1212.996316L565.549524,1204.973724L568.418348,1191.855094L566.832795,1180.757596L559.992960,1175.661557Z ">
   <title>
    GUIMARAS
   </title>
  </path>
  <path class="ILOILO" d="M499.106864,1208.857093L505.384856,1196.690609L515.250830,1189.821117L539.591547,1183.671288L553.017588,1183.069623L554.470515,1173.881098L561.019659,1170.844738L567.432181,1172.379858L571.778043,1162.971699L568.795117,1153.710744L569.699814,1149.118237L578.500676,1143.314223L585.994705,1143.381983L591.850102,1135.937704L593.097507,1127.190794L599.398217,1130.203787L603.321275,1126.304069L599.252468,1120.422948L598.510717,1108.583598L602.449168,1104.076372L600.806975,1098.206931L603.270242,1091.508009L594.367136,1088.863021L591.813307,1096.710364L587.685567,1102.225816L582.419031,1104.173340L583.744242,1111.181853L576.826699,1115.146996L575.033550,1124.403278L568.345106,1124.857739L566.600944,1120.821332L554.636857,1121.923020L545.708353,1119.029190L543.860270,1123.924283L538.693046,1126.719977L527.509618,1124.756098L520.614639,1120.621556L513.195923,1131.865081L522.991661,1145.488391L522.438234,1153.999309L511.591463,1167.381956L510.387175,1175.756188L496.947114,1188.030143L497.099741,1206.694603L499.106864,1208.857093Z ">
   <title>
    ILOILO
   </title>
  </path>
  <path class="NEGROS OCCIDENTAL" d="M633.845301,1218.678841L636.491416,1210.979861L645.714807,1202.828759L647.968070,1181.337063L653.047704,1170.939369L644.103338,1154.611488L641.133113,1156.852249L631.728080,1151.880050L627.128562,1152.001551L612.319550,1146.847101L605.615776,1151.047066L600.539109,1157.154833L592.858260,1157.177030L588.500604,1165.524391L591.403109,1172.601831L590.373789,1184.940040L588.141975,1192.718454L583.522542,1199.103110L578.480328,1200.159236L580.354485,1211.900467L585.689238,1221.384583L583.636841,1228.498258L585.409109,1241.779309L588.932225,1252.328922L587.357058,1255.031167L578.429053,1257.096696L572.765674,1264.436306L564.837372,1266.793915L552.450889,1265.852273L546.838669,1267.145570L546.001713,1275.248834L541.273056,1282.242227L543.945437,1291.632961L542.162124,1297.390310L545.764676,1303.410528L550.229761,1303.093920L551.054614,1308.937729L557.656333,1316.496598L561.789320,1323.991216L567.743971,1330.227583L571.430320,1322.447897L579.277975,1311.379465L597.889844,1282.160446L603.115272,1274.814229L605.342828,1263.049115L613.008089,1245.485108L621.309862,1233.211114L613.309988,1216.300218L625.288549,1215.664672L633.845301,1218.678841Z ">
   <title>
    NEGROS OCCIDENTAL
   </title>
  </path>
  <path class="BOHOL" d="M693.564714,1306.118634L686.675706,1309.297563L685.117702,1317.264168L690.056902,1316.958075L696.488031,1308.905016L693.564714,1306.118634Z M735.266983,1245.425525L719.229736,1246.596147L717.307509,1257.719392L712.037843,1256.229828L708.980215,1268.340731L697.639195,1272.333948L690.949883,1278.543415L687.694013,1284.171077L686.941159,1294.800203L694.617108,1297.180017L693.552265,1302.585712L696.946959,1307.181782L707.080178,1311.127113L719.574025,1312.860863L729.752937,1310.330336L735.966232,1311.616629L746.970759,1307.749573L751.048576,1304.699156L750.896722,1298.980357L757.922909,1293.152910L761.791553,1296.948695L767.740962,1295.618008L769.594190,1286.938761L761.070669,1282.130070L766.549512,1278.066752L763.306655,1270.812834L763.670315,1262.425250L759.024913,1257.319838L753.162608,1257.377085L742.478055,1247.124211L735.266983,1245.425525Z ">
   <title>
    BOHOL
   </title>
  </path>
  <path class="CEBU" d="M706.173019,1227.509891L701.261397,1225.020280L696.485921,1228.696867L701.408805,1234.395754L706.173019,1227.509891Z M733.934292,1181.831246L728.035154,1193.313109L732.078686,1195.648503L738.833875,1189.465960L733.934292,1181.831246Z M743.099994,1180.692172L738.900368,1189.316420L746.983987,1191.346892L751.838730,1187.740409L748.488855,1182.786899L743.099994,1180.692172Z M754.864995,1168.815435L748.853537,1175.666230L752.758916,1177.638287L754.864995,1168.815435Z M689.354489,1136.700591L685.188277,1144.091129L688.263684,1147.958135L679.949049,1178.791380L672.750574,1190.388902L670.033725,1199.228116L671.432685,1205.184015L667.042940,1216.842301L659.352042,1226.421051L660.641257,1232.741464L655.768947,1241.380924L655.120978,1245.951253L642.187825,1264.834692L645.829708,1278.149701L643.080277,1280.460582L641.063265,1288.749614L641.489957,1298.432427L639.293065,1323.808962L640.776663,1331.560610L644.490400,1332.218361L656.202279,1315.003516L658.932251,1301.853192L660.708372,1286.642015L667.260152,1278.507198L668.424601,1272.106131L667.196812,1258.845620L672.776764,1253.622214L674.308649,1246.813448L680.339993,1237.848033L690.072518,1235.676193L690.772018,1231.514766L696.404656,1225.182671L702.333857,1222.848442L704.364537,1205.302011L702.774245,1198.517801L703.115087,1189.800088L698.916318,1174.918531L701.217231,1170.905489L701.480509,1158.427090L699.329667,1156.325355L699.655163,1146.899673L698.022646,1139.739287L689.354489,1136.700591Z M698.362429,1113.548789L691.942132,1116.190270L687.638525,1124.820354L689.724252,1135.909666L692.765771,1137.694797L697.388947,1129.257481L698.362429,1113.548789Z M664.905237,1112.679588L660.420222,1121.530478L664.658714,1128.091537L671.160450,1130.647734L669.804662,1124.117049L664.905237,1112.679588Z ">
   <title>
    CEBU
   </title>
  </path>
  <path class="NEGROS ORIENTAL" d="M567.743971,1330.227583L575.859681,1337.418453L591.284040,1339.618357L597.486768,1343.915357L598.034636,1355.217479L601.322637,1365.344301L605.492076,1370.399537L614.370415,1376.933844L619.513404,1374.945396L626.767392,1375.891720L634.473290,1367.505657L640.951009,1356.992126L641.977991,1341.444407L633.626550,1332.020919L632.797885,1327.368761L628.012664,1324.455030L618.555793,1308.187683L622.319553,1305.747116L623.215651,1298.800440L620.420919,1291.106061L620.032918,1276.629754L625.963769,1265.231911L631.463411,1250.041419L631.151771,1242.612296L634.271247,1234.391080L633.845301,1218.678841L625.288549,1215.664672L613.309988,1216.300218L621.309862,1233.211114L613.008089,1245.485108L605.342828,1263.049115L603.115272,1274.814229L597.889844,1282.160446L579.277975,1311.379465L571.430320,1322.447897L567.743971,1330.227583Z ">
   <title>
    NEGROS ORIENTAL
   </title>
  </path>
  <path class="SIQUIJOR" d="M674.768082,1346.301022L668.380024,1354.850633L658.294628,1359.186192L664.653999,1366.051123L672.948886,1371.021073L683.227490,1366.295298L679.046939,1358.703685L678.729125,1353.212678L674.768082,1346.301022Z ">
   <title>
    SIQUIJOR
   </title>
  </path>
  <path class="BILIRAN" d="M730.419002,1064.454111L723.807328,1065.901613L723.395695,1070.209070L727.708065,1081.394199L734.814546,1090.773160L748.350736,1091.679747L751.359965,1087.643336L741.035154,1068.219485L730.419002,1064.454111Z ">
   <title>
    BILIRAN
   </title>
  </path>
  <path class="EASTERN SAMAR" d="M876.677687,1177.350890L874.248063,1170.029278L870.264269,1167.787349L867.351313,1171.907873L871.926490,1178.956108L876.677687,1177.350890Z M815.503785,997.625837L812.086866,999.130593L800.461590,986.162573L797.257869,995.928312L797.957409,1008.133425L794.624421,1010.333312L796.991353,1030.691874L806.664271,1031.041191L813.970079,1045.393569L818.134846,1068.312948L811.201447,1076.856594L814.142270,1086.152609L814.242429,1092.801296L823.821216,1100.833226L819.380788,1109.968010L821.716566,1133.144347L825.744441,1131.359216L837.597292,1135.636288L852.518949,1129.589272L854.465760,1134.431792L862.425143,1130.564786L864.699865,1137.058085L872.486543,1145.387919L873.574837,1139.951914L865.925983,1131.021583L862.983832,1124.774791L859.315072,1122.979145L854.563542,1126.707126L849.580205,1124.553986L851.164381,1115.583933L857.534195,1109.164233L857.731459,1105.687431L850.230420,1101.372972L838.983763,1084.559073L834.257455,1075.099498L839.538374,1068.770914L834.346542,1058.741208L828.678507,1042.705347L828.408265,1035.331135L835.651831,1023.633091L828.634619,1016.715666L832.134874,1009.654536L835.896468,1007.667279L825.421360,997.431900L815.503785,997.625837Z ">
   <title>
    EASTERN SAMAR
   </title>
  </path>
  <path class="LEYTE" d="M816.672827,1191.633121L812.329886,1183.253043L802.905418,1179.604503L798.817997,1165.803609L800.892493,1155.446808L800.422060,1139.934389L795.580969,1128.595066L795.068704,1118.955589L790.644455,1115.843291L790.202751,1101.511997L779.145151,1096.133233L772.872881,1098.711628L772.401501,1102.498026L761.772068,1111.833753L750.710629,1111.381629L747.311077,1107.493593L742.653181,1096.955703L736.354616,1099.634570L719.735161,1081.803098L717.531312,1085.396731L725.745451,1109.779917L732.971671,1119.411218L731.584599,1123.535246L734.401724,1132.782181L731.605580,1140.822282L739.732950,1156.773974L746.341811,1163.525463L751.490806,1155.672286L749.502487,1151.009681L752.568830,1146.463905L757.324021,1147.836634L764.627117,1154.745840L768.188540,1161.393353L777.081250,1173.218683L780.528537,1188.666856L777.457922,1193.714997L777.567665,1203.164056L775.262370,1206.935269L775.747407,1218.559676L783.464614,1229.492468L781.479974,1242.503645L783.536788,1243.289901L789.845287,1235.651659L795.281025,1234.249718L792.610975,1220.701138L795.981430,1203.086950L808.163623,1203.361496L816.672827,1191.633121Z ">
   <title>
    LEYTE
   </title>
  </path>
  <path class="NORTHERN SAMAR" d="M815.503785,997.625837L810.173894,990.347390L811.002912,983.883237L808.384022,974.581295L791.290732,961.718380L778.618140,963.307261L772.277392,961.423970L762.851730,966.674286L756.326031,965.546882L752.258302,968.035348L739.975605,969.855549L719.809194,966.254868L716.201805,963.301420L705.013918,962.976634L704.568964,974.251837L709.232474,979.735801L712.586415,992.268060L715.385850,996.261274L723.077422,996.434181L728.815696,990.565861L745.049327,1000.828117L752.017479,995.279911L766.141283,1003.734820L771.313322,1001.499883L781.578200,1002.390120L792.333514,996.475071L797.257869,995.928312L800.461590,986.162573L812.086866,999.130593L815.503785,997.625837Z ">
   <title>
    NORTHERN SAMAR
   </title>
  </path>
  <path class="SAMAR (WESTERN)" d="M760.535134,1062.151426L760.329286,1067.490477L766.260530,1074.517694L765.010046,1077.489802L769.607435,1083.349902L774.221927,1082.971379L768.458566,1071.372679L760.535134,1062.151426Z M797.257869,995.928312L792.333514,996.475071L781.578200,1002.390120L771.313322,1001.499883L766.141283,1003.734820L752.017479,995.279911L745.049327,1000.828117L728.815696,990.565861L723.077422,996.434181L715.385850,996.261274L719.069864,1005.990785L725.491010,1010.777261L729.900911,1017.347709L736.122686,1022.221801L741.592090,1021.357269L752.220383,1028.536387L754.639963,1035.097478L764.839458,1041.497342L776.115736,1058.893085L778.887684,1060.456248L788.688475,1055.728206L792.144395,1059.126742L786.232178,1068.135369L788.293919,1072.781627L784.570432,1080.328727L773.721957,1085.111670L774.388616,1091.259166L782.409685,1092.289589L788.781249,1095.059583L792.805810,1105.326432L792.643456,1113.537106L796.766028,1115.107274L807.560610,1114.100217L811.322588,1117.474210L815.240439,1125.832084L817.463716,1135.487917L821.716566,1133.144347L819.380788,1109.968010L823.821216,1100.833226L814.242429,1092.801296L814.142270,1086.152609L811.201447,1076.856594L818.134846,1068.312948L813.970079,1045.393569L806.664271,1031.041191L796.991353,1030.691874L794.624421,1010.333312L797.957409,1008.133425L797.257869,995.928312Z ">
   <title>
    SAMAR (WESTERN)
   </title>
  </path>
  <path class="SOUTHERN LEYTE" d="M820.990222,1246.290056L819.214329,1250.799636L822.571295,1257.792994L826.743872,1260.206674L835.355512,1274.719598L836.987133,1268.433026L828.749623,1249.750516L820.990222,1246.290056Z M781.479974,1242.503645L786.800024,1249.622005L795.556951,1250.520416L806.702321,1261.135461L810.894639,1259.741696L809.816544,1253.466832L804.722062,1243.341305L803.433170,1229.775192L801.291215,1220.995545L806.683202,1221.570340L813.610920,1238.020939L820.257021,1232.422523L826.747257,1235.578057L831.284055,1234.242708L830.839950,1221.134571L822.270619,1214.083986L822.716317,1208.536983L819.288742,1201.845067L820.756680,1194.769955L816.672827,1191.633121L808.163623,1203.361496L795.981430,1203.086950L792.610975,1220.701138L795.281025,1234.249718L789.845287,1235.651659L783.536788,1243.289901L781.479974,1242.503645Z ">
   <title>
    SOUTHERN LEYTE
   </title>
  </path>
  <path class="BUKIDNON" d="M851.832034,1429.010967L809.624007,1429.166351L805.104756,1442.391574L805.263179,1448.056693L785.620537,1448.285681L782.733018,1466.513614L780.506459,1469.897034L781.696592,1476.587936L774.779206,1480.862778L784.915715,1489.378584L784.699795,1502.803632L789.881203,1514.859429L793.210836,1516.511421L802.399033,1529.085955L805.117597,1538.114669L810.762110,1543.534470L814.832299,1550.199692L811.844082,1554.696528L817.027347,1562.387532L822.571291,1565.804848L830.078910,1567.004706L838.810095,1564.805940L840.021898,1559.310195L848.991429,1557.703765L849.220008,1550.630799L853.962624,1542.244653L857.940684,1544.450426L856.914233,1537.158990L867.091090,1537.108752L872.337589,1535.497650L870.876226,1522.580797L868.178652,1516.646945L868.459562,1506.369316L864.324292,1497.367486L869.391167,1487.648318L867.672829,1478.151133L865.315115,1474.430070L862.553968,1462.651187L857.199606,1458.050392L853.200380,1442.976896L851.832034,1429.010967Z ">
   <title>
    BUKIDNON
   </title>
  </path>
  <path class="CAMIGUIN" d="M786.778302,1351.495278L780.018147,1354.073714L779.748835,1361.022760L784.237644,1366.910992L795.282820,1371.134398L797.482332,1366.785984L793.803058,1357.208261L786.778302,1351.495278Z ">
   <title>
    CAMIGUIN
   </title>
  </path>
  <path class="LANAO DEL NORTE" d="M780.506459,1469.897034L776.756825,1463.175758L770.091186,1458.909098L747.164274,1459.266600L748.981506,1464.854616L746.342077,1471.080530L738.058696,1474.889215L724.447381,1474.549238L715.495589,1478.908197L700.845064,1493.048244L698.611402,1498.492568L690.942221,1502.902939L684.312377,1516.324491L692.615573,1518.980062L699.234316,1524.860172L699.111411,1529.043896L708.185148,1532.795345L710.228001,1528.089385L726.535010,1533.132987L726.951487,1525.603219L731.265329,1514.802182L727.334198,1508.833282L736.498908,1508.440730L741.267328,1495.047222L746.744724,1495.327617L755.735297,1487.247588L751.945763,1480.533315L753.448884,1471.323538L758.499026,1472.780419L774.779206,1480.862778L781.696592,1476.587936L780.506459,1469.897034Z ">
   <title>
    LANAO DEL NORTE
   </title>
  </path>
  <path class="MISAMIS OCCIDENTAL" d="M689.037656,1495.271538L693.860986,1491.174276L700.465598,1490.737328L710.995789,1477.232843L707.866426,1465.827817L705.515329,1448.025149L694.616807,1427.802939L687.902391,1423.206827L678.537689,1422.991858L673.805705,1425.277063L675.753212,1443.889343L677.244193,1473.378593L680.209236,1491.191800L689.037656,1495.271538Z ">
   <title>
    MISAMIS OCCIDENTAL
   </title>
  </path>
  <path class="MISAMIS ORIENTAL" d="M850.800040,1419.639992L847.660946,1393.373020L843.404927,1388.345815L842.584896,1382.202884L838.359588,1369.592241L835.499984,1379.953903L838.722683,1392.233925L836.842798,1397.361606L828.748898,1400.868852L821.240403,1389.783995L805.500334,1380.267008L799.303622,1380.512351L795.329134,1384.964749L798.493857,1401.028909L796.414122,1406.276929L798.180274,1411.695522L794.949240,1414.740123L798.265227,1428.616080L795.642601,1431.998324L797.982161,1437.819992L794.780146,1441.176536L778.214672,1434.406202L764.820006,1425.084293L752.536539,1433.811534L749.236032,1443.816908L750.170034,1451.125835L747.164274,1459.266600L770.091186,1458.909098L776.756825,1463.175758L780.506459,1469.897034L782.733018,1466.513614L785.620537,1448.285681L805.263179,1448.056693L805.104756,1442.391574L809.624007,1429.166351L851.832034,1429.010967L850.800040,1419.639992Z ">
   <title>
    MISAMIS ORIENTAL
   </title>
  </path>
  <path class="COMPOSTELA VALLEY" d="M895.449214,1497.366317L900.008955,1522.417233L903.192427,1523.509605L913.304417,1537.476771L921.815526,1522.567946L926.641710,1517.562900L928.796369,1524.673243L924.232352,1532.801186L927.928406,1537.161326L925.981806,1549.058251L920.659577,1554.287618L917.566087,1561.277635L918.810571,1571.968870L921.222225,1573.995894L919.923338,1584.363510L926.209943,1594.807071L925.656345,1600.006070L932.937818,1605.679476L935.205399,1602.762124L969.105241,1580.756925L966.798046,1566.244134L967.819071,1560.173579L965.086953,1541.464220L955.087794,1520.835340L948.784754,1499.708779L950.075504,1497.474970L945.053595,1497.430574L935.688238,1504.400713L928.501388,1497.465624L895.449214,1497.366317Z ">
   <title>
    COMPOSTELA VALLEY
   </title>
  </path>
  <path class="DAVAO" d="M910.274867,1594.694913L905.833372,1592.129295L904.625675,1606.621068L910.249344,1609.871319L911.365679,1619.414116L918.209252,1621.665460L916.086247,1610.827001L917.816438,1601.015494L910.274867,1594.694913Z M895.449214,1497.366317L864.324292,1497.367486L868.459562,1506.369316L868.178652,1516.646945L870.876226,1522.580797L872.337589,1535.497650L867.091090,1537.108752L856.914233,1537.158990L857.940684,1544.450426L888.518657,1544.137319L891.685112,1585.224558L898.787849,1585.472240L904.083119,1579.159840L907.031733,1580.130709L918.810571,1571.968870L917.566087,1561.277635L920.659577,1554.287618L925.981806,1549.058251L927.928406,1537.161326L924.232352,1532.801186L928.796369,1524.673243L926.641710,1517.562900L921.815526,1522.567946L913.304417,1537.476771L903.192427,1523.509605L900.008955,1522.417233L895.449214,1497.366317Z ">
   <title>
    DAVAO
   </title>
  </path>
  <path class="DAVAO DEL SUR" d="M888.305609,1797.845219L881.910332,1802.915711L885.026379,1805.942818L891.828988,1805.457966L888.305609,1797.845219Z M907.031733,1580.130709L904.083119,1579.159840L898.787849,1585.472240L891.685112,1585.224558L888.518657,1544.137319L857.940684,1544.450426L859.555526,1553.064395L857.677172,1557.019134L858.804725,1568.765354L856.841243,1571.246852L859.263962,1584.050402L858.454652,1591.559157L865.740821,1601.537731L864.408039,1617.463030L854.579017,1631.004972L849.581404,1636.270570L851.837179,1642.345811L854.456378,1644.872878L854.026038,1651.853565L857.368927,1657.588828L858.197713,1666.970406L857.163958,1676.721173L858.795817,1683.673823L867.906773,1690.908039L884.585584,1691.711840L890.428698,1694.935226L895.445847,1702.307303L896.401593,1714.265023L899.543766,1722.236448L894.891611,1734.360070L892.991292,1744.686821L894.577516,1750.297077L886.438519,1770.021766L880.497181,1781.813583L888.694289,1781.778534L891.888136,1776.720892L900.747345,1756.544066L911.987866,1740.524108L915.532408,1727.960031L915.832028,1711.812727L914.149518,1704.993263L909.302524,1697.701799L904.491175,1682.857170L900.212179,1677.950242L897.995498,1669.012622L883.847198,1662.936210L878.227316,1659.010668L876.649712,1648.263330L878.800200,1636.048590L886.650621,1623.248526L886.197373,1617.542475L890.454228,1611.143614L898.748950,1608.568648L902.525461,1601.840324L902.997031,1587.031940L907.031733,1580.130709Z ">
   <title>
    DAVAO DEL SUR
   </title>
  </path>
  <path class="DAVAO ORIENTAL" d="M966.538232,1497.467960L950.075504,1497.474970L948.784754,1499.708779L955.087794,1520.835340L965.086953,1541.464220L967.819071,1560.173579L966.798046,1566.244134L969.105241,1580.756925L935.205399,1602.762124L932.937818,1605.679476L937.018912,1611.238248L936.538018,1619.553146L939.898290,1626.446205L947.388963,1630.390438L950.730383,1644.140344L948.915400,1656.315363L951.707023,1662.737596L951.233080,1668.607217L960.910235,1688.026970L965.049053,1686.816594L967.301087,1679.382597L965.217657,1671.283829L966.878995,1668.116524L965.168297,1656.688056L968.017534,1642.658920L960.122451,1633.089247L959.042507,1622.514825L963.403809,1621.305618L970.951434,1630.499091L970.616086,1635.057858L975.806559,1637.914390L975.883576,1630.773645L970.338497,1626.567710L973.946052,1614.170718L985.342538,1615.607746L986.677074,1603.553073L992.506129,1597.857540L992.950642,1590.826624L999.735456,1581.269815L995.087419,1580.274412L994.663956,1569.321471L997.317312,1556.477036L992.906757,1547.585009L990.473764,1529.282232L984.007863,1527.682813L978.386477,1520.199779L972.013755,1517.222922L968.983120,1508.211741L966.538232,1497.467960Z ">
   <title>
    DAVAO ORIENTAL
   </title>
  </path>
  <path class="COTABATO" d="M810.762110,1543.534470L800.242227,1540.812302L790.326722,1541.887149L783.051800,1533.992864L776.159947,1538.392727L773.828615,1553.312077L779.905583,1562.377017L772.059069,1579.003286L766.338596,1595.138872L770.871797,1595.413426L774.159527,1588.846332L782.869733,1588.646550L777.253660,1604.215508L781.292151,1609.425023L789.157682,1612.537414L793.465620,1618.012138L799.310881,1620.428214L806.457223,1615.287807L804.731845,1609.349083L808.461357,1603.437410L804.510255,1597.941658L805.927617,1592.154997L814.369348,1601.462958L820.684334,1639.439042L829.292926,1639.024290L841.427607,1647.061133L851.837179,1642.345811L849.581404,1636.270570L854.579017,1631.004972L864.408039,1617.463030L865.740821,1601.537731L858.454652,1591.559157L859.263962,1584.050402L856.841243,1571.246852L858.804725,1568.765354L857.677172,1557.019134L859.555526,1553.064395L857.940684,1544.450426L853.962624,1542.244653L849.220008,1550.630799L848.991429,1557.703765L840.021898,1559.310195L838.810095,1564.805940L830.078910,1567.004706L822.571291,1565.804848L817.027347,1562.387532L811.844082,1554.696528L814.832299,1550.199692L810.762110,1543.534470Z ">
   <title>
    COTABATO
   </title>
  </path>
  <path class="COTABATO CITY" d="M747.593063,1592.542878L755.877765,1595.473010L762.868631,1595.247525L752.622828,1584.050402L747.593063,1592.542878Z ">
   <title>
    COTABATO CITY
   </title>
  </path>
  <path class="SARANGANI" d="M854.146634,1737.603317L848.109304,1737.306564L843.908103,1730.199694L822.154089,1729.760407L810.667459,1722.408190L802.399572,1719.038765L800.039931,1715.163459L781.504659,1707.942094L774.482121,1717.583043L783.869945,1721.619577L795.827027,1729.919298L824.125388,1742.642267L826.381961,1744.485870L839.860298,1748.496701L851.439999,1748.635731L854.146634,1737.603317Z M880.497181,1781.813583L886.438519,1770.021766L894.577516,1750.297077L892.991292,1744.686821L894.891611,1734.360070L899.543766,1722.236448L896.401593,1714.265023L895.445847,1702.307303L890.428698,1694.935226L884.585584,1691.711840L867.906773,1690.908039L858.795817,1683.673823L857.163958,1676.721173L852.023518,1682.176042L848.354918,1689.923148L870.937860,1698.798848L871.086757,1702.960392L867.375967,1710.566133L868.053459,1720.145161L871.379057,1722.496982L873.398865,1733.225634L868.473888,1742.308128L863.951044,1757.214680L867.113662,1757.872442L870.628992,1764.752658L873.643301,1765.270222L880.497181,1781.813583Z ">
   <title>
    SARANGANI
   </title>
  </path>
  <path class="SOUTH COTABATO" d="M858.197713,1666.970406L823.148069,1667.756683L813.710004,1652.594277L798.732826,1669.603790L803.243402,1681.602399L800.505400,1691.300593L794.203105,1693.211959L768.071811,1693.851028L772.524918,1703.949956L781.504659,1707.942094L800.039931,1715.163459L802.399572,1719.038765L810.667459,1722.408190L822.154089,1729.760407L843.908103,1730.199694L848.109304,1737.306564L854.146634,1737.603317L857.684583,1730.103892L860.426248,1719.784151L868.053459,1720.145161L867.375967,1710.566133L871.086757,1702.960392L870.937860,1698.798848L848.354918,1689.923148L852.023518,1682.176042L857.163958,1676.721173L858.197713,1666.970406Z ">
   <title>
    SOUTH COTABATO
   </title>
  </path>
  <path class="SULTAN KUDARAT" d="M818.237008,1654.012613L812.979799,1639.455398L803.919450,1639.442547L805.610906,1629.577290L801.947165,1627.935807L791.251220,1631.318081L793.596743,1640.182090L787.631806,1646.660401L763.569942,1646.545906L761.847944,1643.406642L738.558194,1642.783929L736.398730,1647.065806L740.805171,1657.203284L739.883906,1664.449180L741.140379,1681.457527L748.784258,1693.886077L754.092490,1699.335106L757.538958,1706.729381L771.750769,1717.413637L774.379300,1717.551498L774.394696,1717.567854L774.482121,1717.583043L781.504659,1707.942094L772.524918,1703.949956L768.071811,1693.851028L794.203105,1693.211959L800.505400,1691.300593L803.243402,1681.602399L798.732826,1669.603790L813.710004,1652.594277L823.148069,1667.756683L858.197713,1666.970406L857.368927,1657.588828L854.026038,1651.853565L854.456378,1644.872878L851.837179,1642.345811L841.427607,1647.061133L824.468559,1655.487027L818.237008,1654.012613Z ">
   <title>
    SULTAN KUDARAT
   </title>
  </path>
  <path class="AGUSAN DEL NORTE" d="M894.897206,1342.070614L892.518969,1332.918171L883.340259,1327.461057L871.006838,1326.319631L870.833241,1340.354385L868.603133,1340.225872L864.291517,1328.566265L860.916047,1329.178453L862.617438,1336.153186L867.731267,1346.949428L871.348798,1358.912810L870.534706,1362.917742L872.477901,1374.110060L869.501032,1380.165366L862.870190,1383.010180L848.292775,1381.589525L842.655016,1376.838043L838.359588,1369.592241L842.584896,1382.202884L843.404927,1388.345815L847.660946,1393.373020L850.800040,1419.639992L868.259118,1419.469419L873.357848,1414.835924L890.162251,1414.934061L886.351981,1403.185597L889.009820,1396.062453L890.963777,1381.622238L895.338482,1370.744186L896.731565,1360.209623L895.371313,1351.221896L894.897206,1342.070614Z ">
   <title>
    AGUSAN DEL NORTE
   </title>
  </path>
  <path class="AGUSAN DEL SUR" d="M966.538232,1497.467960L965.331197,1491.448828L960.303998,1490.028164L958.981691,1485.057008L952.614833,1478.468913L950.781012,1472.910101L954.829278,1463.710843L954.797550,1455.304870L937.202671,1455.183366L931.336499,1452.882969L927.812129,1444.168568L927.368984,1430.262222L924.672902,1429.748168L924.486560,1417.998524L911.757585,1395.646537L909.448518,1377.255127L903.341320,1362.524025L895.371313,1351.221896L896.731565,1360.209623L895.338482,1370.744186L890.963777,1381.622238L889.009820,1396.062453L886.351981,1403.185597L890.162251,1414.934061L873.357848,1414.835924L868.259118,1419.469419L850.800040,1419.639992L851.832034,1429.010967L853.200380,1442.976896L857.199606,1458.050392L862.553968,1462.651187L865.315115,1474.430070L867.672829,1478.151133L869.391167,1487.648318L864.324292,1497.367486L895.449214,1497.366317L928.501388,1497.465624L935.688238,1504.400713L945.053595,1497.430574L950.075504,1497.474970L966.538232,1497.467960Z ">
   <title>
    AGUSAN DEL SUR
   </title>
  </path>
  <path class="DINAGAT ISLANDS" d="M871.205978,1212.724106L866.112948,1213.440263L866.328489,1219.869321L863.355428,1221.582023L857.247813,1239.370307L855.936342,1249.402367L858.599235,1254.180655L863.619569,1253.886247L869.435946,1258.257972L866.310847,1261.485947L875.421233,1272.198426L878.578469,1254.709888L875.215166,1250.432795L871.289759,1229.416529L874.249439,1218.951051L871.205978,1212.724106Z ">
   <title>
    DINAGAT ISLANDS
   </title>
  </path>
  <path class="SURIGAO DEL NORTE" d="M907.336326,1291.899331L904.396812,1296.656621L907.070347,1304.162909L906.786002,1311.018462L911.583958,1314.005792L912.471249,1300.513158L907.336326,1291.899331Z M907.730926,1322.935076L900.473804,1317.912572L891.843952,1315.837679L887.953497,1312.539582L878.383639,1309.681932L872.468653,1304.287917L871.610302,1296.675314L867.931593,1292.395856L857.837092,1286.691083L852.343230,1290.514904L852.201167,1303.991170L860.916047,1329.178453L864.291517,1328.566265L862.382799,1320.608999L868.514600,1318.795804L871.006838,1326.319631L883.340259,1327.461057L892.518969,1332.918171L894.897206,1342.070614L907.730926,1322.935076Z M918.277780,1259.589818L915.389433,1257.659810L912.902719,1267.284596L905.625578,1274.265133L910.017123,1284.265708L915.776314,1292.996359L925.053075,1293.150573L930.162986,1288.512451L924.535858,1278.099464L923.801044,1273.172781L918.277780,1259.589818Z ">
   <title>
    SURIGAO DEL NORTE
   </title>
  </path>
  <path class="SURIGAO DEL SUR" d="M968.983120,1508.211741L974.713266,1500.134044L972.418062,1496.903667L975.160776,1486.324623L973.092446,1469.350266L963.768464,1475.278262L961.330835,1470.696157L965.843417,1465.539245L964.745473,1460.377661L960.116278,1455.384315L965.170969,1450.136279L966.184548,1441.914905L962.723302,1433.874623L948.317822,1435.812842L938.151038,1433.304490L934.229330,1421.818880L942.590755,1416.350046L949.549981,1406.160098L952.998554,1406.372729L956.706490,1397.972628L953.722534,1393.344981L952.977188,1385.344447L936.489923,1368.201964L938.095628,1361.448021L937.253032,1352.762883L939.639352,1344.403706L935.234887,1344.103453L928.910408,1351.195025L923.492675,1352.404215L912.525484,1336.703455L907.730926,1322.935076L894.897206,1342.070614L895.371313,1351.221896L903.341320,1362.524025L909.448518,1377.255127L911.757585,1395.646537L924.486560,1417.998524L924.672902,1429.748168L927.368984,1430.262222L927.812129,1444.168568L931.336499,1452.882969L937.202671,1455.183366L954.797550,1455.304870L954.829278,1463.710843L950.781012,1472.910101L952.614833,1478.468913L958.981691,1485.057008L960.303998,1490.028164L965.331197,1491.448828L966.538232,1497.467960L968.983120,1508.211741Z ">
   <title>
    SURIGAO DEL SUR
   </title>
  </path>
 </g>
</svg>