<?xml version="1.0" encoding="utf-8"?>
<!DOCTYPE svg PUBLIC "-//W3C//DTD SVG 1.1//EN" "http://www.w3.org/Graphics/SVG/1.1/DTD/svg11.dtd">
<svg height="1892px" version="1.1" viewBox="0 0 1000 1892" width="1000px" xmlns="http://www.w3.org/2000/svg" xmlns:xlink="http://www.w3.org/1999/xlink">
 <defs>
  <style type="text/css">
   .default
    {
    fill: #bdbdbd;
    stroke:#ffffff;
    stroke-width:2;
    }
    .abra
    {  
       fill: #FCCAB6;
       stroke:#000000;
       stroke-width:2;
    }
.agusan_del_norte
    {  
       fill: #EF3E2E;
       stroke:#000000;
       stroke-width:2;
    }
.agusan_del_sur
    {  
       fill: #FCC3AC;
       stroke:#000000;
       stroke-width:2;
    }
.aklan
    {  
       fill: #67000D;
       stroke:#000000;
       stroke-width:2;
    }
.albay
    {  
       fill: #FEEBE1;
       stroke:#000000;
       stroke-width:2;
    }
.antique
    {  
       fill: #F4513A;
       stroke:#000000;
       stroke-width:2;
    }
.apayao
    {  
       fill: #FFF5F0;
       stroke:#000000;
       stroke-width:2;
    }
.aurora
    {  
       fill: #FDD6C5;
       stroke:#000000;
       stroke-width:2;
    }
.basilan
    {  
       fill: #FEE4D8;
       stroke:#000000;
       stroke-width:2;
    }
.bataan
    {  
       fill: #FEF0E9;
       stroke:#000000;
       stroke-width:2;
    }
.batangas
    {  
       fill: #FEF4EF;
       stroke:#000000;
       stroke-width:2;
    }
.benguet
    {  
       fill: #E0E0E0;
       stroke:#000000;
       stroke-width:2;
    }
.biliran
    {  
       fill: #F44E38;
       stroke:#000000;
       stroke-width:2;
    }
.bohol
    {  
       fill: #FCB89D;
       stroke:#000000;
       stroke-width:2;
    }
.bukidnon
    {  
       fill: #FEF1EA;
       stroke:#000000;
       stroke-width:2;
    }
.bulacan
    {  
       fill: #FEF2EC;
       stroke:#000000;
       stroke-width:2;
    }
.cagayan
    {  
       fill: #FDD3C0;
       stroke:#000000;
       stroke-width:2;
    }
.camarines_norte
    {  
       fill: #FB7252;
       stroke:#000000;
       stroke-width:2;
    }
.camarines_sur
    {  
       fill: #FDDACA;
       stroke:#000000;
       stroke-width:2;
    }
.camiguin
    {  
       fill: #FCC0A8;
       stroke:#000000;
       stroke-width:2;
    }
.capiz
    {  
       fill: #FDCEBA;
       stroke:#000000;
       stroke-width:2;
    }
.catanduanes
    {  
       fill: #FCCDB9;
       stroke:#000000;
       stroke-width:2;
    }
.cavite
    {  
       fill: #FCA98D;
       stroke:#000000;
       stroke-width:2;
    }
.cebu
    {  
       fill: #FCB499;
       stroke:#000000;
       stroke-width:2;
    }
.compostela_valley
    {  
       fill: #FEEBE2;
       stroke:#000000;
       stroke-width:2;
    }
.davao_del_norte
    {  
       fill: #FEF0E9;
       stroke:#000000;
       stroke-width:2;
    }
.davao_del_sur
    {  
       fill: #FEEAE0;
       stroke:#000000;
       stroke-width:2;
    }
.davao_oriental
    {  
       fill: #FDDBCB;
       stroke:#000000;
       stroke-width:2;
    }
.eastern_samar
    {  
       fill: #FB7C5C;
       stroke:#000000;
       stroke-width:2;
    }
.guimaras
    {  
       fill: #CA171C;
       stroke:#000000;
       stroke-width:2;
    }
.ifugao
    {  
       fill: #FEE9E0;
       stroke:#000000;
       stroke-width:2;
    }
.ilocos_norte
    {  
       fill: #FEF2EC;
       stroke:#000000;
       stroke-width:2;
    }
.ilocos_sur
    {  
       fill: #FEF2EC;
       stroke:#000000;
       stroke-width:2;
    }
.iloilo
    {  
       fill: #E0E0E0;
       stroke:#000000;
       stroke-width:2;
    }
.isabela
    {  
       fill: #FEE2D5;
       stroke:#000000;
       stroke-width:2;
    }
.kalinga
    {  
       fill: #FEE5D9;
       stroke:#000000;
       stroke-width:2;
    }
.la_union
    {  
       fill: #FEF4EF;
       stroke:#000000;
       stroke-width:2;
    }
.laguna
    {  
       fill: #FEF2EC;
       stroke:#000000;
       stroke-width:2;
    }
.lanao_del_norte
    {  
       fill: #FEE2D5;
       stroke:#000000;
       stroke-width:2;
    }
.lanao_del_sur
    {  
       fill: #FEEAE0;
       stroke:#000000;
       stroke-width:2;
    }
.leyte
    {  
       fill: #AF1117;
       stroke:#000000;
       stroke-width:2;
    }
.maguindanao
    {  
       fill: #FCA689;
       stroke:#000000;
       stroke-width:2;
    }
.marinduque
    {  
       fill: #FB8D6D;
       stroke:#000000;
       stroke-width:2;
    }
.masbate
    {  
       fill: #FCB297;
       stroke:#000000;
       stroke-width:2;
    }
.misamis_oriental
    {  
       fill: #FB6E4E;
       stroke:#000000;
       stroke-width:2;
    }
.mountain_province
    {  
       fill: #E0E0E0;
       stroke:#000000;
       stroke-width:2;
    }
.negros_occidental
    {  
       fill: #FEE5D9;
       stroke:#000000;
       stroke-width:2;
    }
.north_cotabato
    {  
       fill: #FDD3C0;
       stroke:#000000;
       stroke-width:2;
    }
.northern_samar
    {  
       fill: #F86043;
       stroke:#000000;
       stroke-width:2;
    }
.nueva_ecija
    {  
       fill: #FDCFBC;
       stroke:#000000;
       stroke-width:2;
    }
.nueva_vizcaya
    {  
       fill: #FDD4C2;
       stroke:#000000;
       stroke-width:2;
    }
.occidental_mindoro
    {  
       fill: #FCAB8E;
       stroke:#000000;
       stroke-width:2;
    }
.oriental_mindoro
    {  
       fill: #F75D42;
       stroke:#000000;
       stroke-width:2;
    }
.palawan
    {  
       fill: #D62321;
       stroke:#000000;
       stroke-width:2;
    }
.pampanga
    {  
       fill: #FDD8C8;
       stroke:#000000;
       stroke-width:2;
    }
.pangasinan
    {  
       fill: #FEE3D6;
       stroke:#000000;
       stroke-width:2;
    }
.quezon
    {  
       fill: #FEF2EC;
       stroke:#000000;
       stroke-width:2;
    }
.quirino
    {  
       fill: #E0E0E0;
       stroke:#000000;
       stroke-width:2;
    }
.rizal
    {  
       fill: #FEF3EE;
       stroke:#000000;
       stroke-width:2;
    }
.romblon
    {  
       fill: #FB7353;
       stroke:#000000;
       stroke-width:2;
    }
.samar
    {  
       fill: #FDDCCD;
       stroke:#000000;
       stroke-width:2;
    }
.sarangani
    {  
       fill: #FEF4EF;
       stroke:#000000;
       stroke-width:2;
    }
.sorsogon
    {  
       fill: #FCB99F;
       stroke:#000000;
       stroke-width:2;
    }
.south_cotabato
    {  
       fill: #FEF2EC;
       stroke:#000000;
       stroke-width:2;
    }
.southern_leyte
    {  
       fill: #FDD8C8;
       stroke:#000000;
       stroke-width:2;
    }
.sultan_kudarat
    {  
       fill: #FDCEBA;
       stroke:#000000;
       stroke-width:2;
    }
.sulu
    {  
       fill: #E0E0E0;
       stroke:#000000;
       stroke-width:2;
    }
.surigao_del_norte
    {  
       fill: #FCB297;
       stroke:#000000;
       stroke-width:2;
    }
.tarlac
    {  
       fill: #FDDFD1;
       stroke:#000000;
       stroke-width:2;
    }
.tawi-tawi
    {  
       fill: #E0E0E0;
       stroke:#000000;
       stroke-width:2;
    }
.zambales
    {  
       fill: #FEEBE1;
       stroke:#000000;
       stroke-width:2;
    }
.zamboanga_del_norte
    {  
       fill: #FCC9B4;
       stroke:#000000;
       stroke-width:2;
    }
.zamboanga_del_sur
    {  
       fill: #FEE8DE;
       stroke:#000000;
       stroke-width:2;
    }
.zamboanga_sibugay
    {  
       fill: #FEEBE2;
       stroke:#000000;
       stroke-width:2;
    }
  </style>
 </defs>
 <title>
  Map of asset risk in the Philippines
 </title>
 <metadata>
  <views>
   <view h="1892.29639326" padding="0" w="1000">
    <proj flip="auto" id="robinson" lon0="120.802016012"/>
    <bbox h="271.23" w="143.41" x="1726.93" y="-349.35"/>
   </view>
  </views>
 </metadata>
 <g class="default" id="default">
  <path class="abra" d="M290.434341,356.023168L288.635802,351.702529L284.182116,348.785329L279.124492,349.422401L274.865752,338.214845L268.049626,333.721280L265.161619,336.756145L249.380152,343.675840L246.736469,350.453128L238.198160,353.426281L235.244572,357.670912L233.547061,365.781707L231.515831,373.268164L231.869354,384.333511L230.812163,390.092911L235.716040,389.648868L243.201513,392.368410L243.405981,397.710539L240.773027,406.233897L243.694304,412.057781L248.624392,411.544629L257.411692,418.140930L257.819222,423.621106L267.814982,429.385290L270.577901,426.070738L276.619502,426.035517L279.990922,426.174617L281.926303,423.088112L281.216269,419.090999L282.672560,412.095008L286.305352,399.101300L284.899024,390.598924L294.945061,382.478879L295.349809,379.150355L290.938131,370.104611L293.770906,368.094402L290.434341,356.023168Z ">
  </path>
  <path class="agusan_del_norte" d="M863.457078,1338.072759L868.615748,1347.725744L869.497144,1354.596250L872.548100,1361.283200L873.975804,1375.599208L871.505609,1381.637634L863.453500,1385.824857L856.341858,1383.779727L849.256893,1384.161893L843.925227,1379.397353L840.050679,1372.152803L844.499685,1388.093225L847.125670,1398.515261L846.138317,1408.135635L847.934208,1422.750826L868.006348,1422.680723L873.736630,1417.924306L892.046499,1418.229238L887.403823,1405.305103L890.120018,1398.723341L889.577012,1393.624442L891.503979,1384.714691L895.877079,1374.441007L897.128749,1363.847244L895.154476,1355.489084L893.527650,1348.844154L893.495194,1345.038996L892.733456,1339.920392L887.546437,1332.754215L876.668585,1329.784720L865.645043,1329.707039L862.040938,1331.596018L863.457078,1338.072759Z ">
  </path>
  <path class="agusan_del_sur" d="M895.154476,1355.489084L897.128749,1363.847244L895.877079,1374.441007L891.503979,1384.714691L889.577012,1393.624442L890.120018,1398.723341L887.403823,1405.305103L892.046499,1418.229238L873.736630,1417.924306L868.006348,1422.680723L847.934208,1422.750826L848.849415,1431.861659L850.426650,1445.973111L852.516711,1456.536619L854.541801,1460.510098L860.525645,1465.226739L865.875691,1482.009833L865.948781,1488.158192L868.146287,1490.775976L867.359253,1497.446713L868.304564,1501.522960L898.409655,1500.048115L911.336156,1500.348422L929.857542,1500.042264L931.942034,1504.213190L937.728956,1507.284419L943.547217,1501.916776L948.578349,1499.831898L967.948341,1499.725573L966.788004,1493.612318L962.139004,1492.195874L967.800196,1485.391954L961.041321,1486.204216L954.249762,1479.442315L951.547115,1479.033287L952.562082,1473.008865L957.251254,1466.308937L957.003726,1457.021657L938.585572,1455.507027L934.298947,1451.142131L938.781341,1444.885119L932.027850,1445.626050L929.293205,1433.443937L926.725679,1433.212564L925.232532,1424.062054L927.508597,1422.196912L922.020020,1413.323254L918.292361,1403.271672L913.715940,1398.362127L911.198130,1381.857304L908.314771,1372.413488L904.210065,1366.131991L895.154476,1355.489084Z ">
  </path>
  <path class="aklan" d="M540.525242,1082.435904L534.018838,1079.676753L530.740887,1084.773108L530.968168,1079.125079L525.493819,1078.573516L523.479467,1072.502535L526.625288,1073.152285L520.496668,1064.354803L510.606985,1062.015145L507.386072,1057.472687L497.155236,1052.733854L491.103989,1052.376324L485.064604,1049.293407L479.110382,1042.962959L473.701508,1041.949771L467.743917,1044.033432L468.006499,1054.699601L465.034145,1060.152378L470.537596,1057.208552L473.550373,1053.296005L482.632418,1053.453818L490.290750,1058.275569L497.750221,1060.666606L499.951327,1065.517555L497.084100,1074.465827L499.736833,1087.506514L498.620363,1094.432975L502.209572,1098.145796L504.966593,1109.170576L507.149831,1112.702179L514.586824,1110.403539L518.893452,1105.816624L521.063026,1098.957926L525.098011,1093.251501L536.041157,1093.355484L538.792540,1091.851476L542.767597,1084.773108L540.525242,1082.435904Z ">
  </path>
  <path class="albay" d="M679.253445,887.921156L674.957577,890.701439L676.978597,893.464110L685.925899,895.456648L687.859927,891.319663L679.253445,887.921156Z M662.970651,882.712440L656.895045,884.669986L662.194357,888.470503L670.130287,890.031835L674.121911,884.168563L662.970651,882.712440Z M649.353869,874.148558L649.383786,883.848361L654.838340,888.706559L653.600406,882.940360L657.576971,877.534146L649.353869,874.148558Z M658.623929,901.225172L654.971911,898.780365L647.821623,910.133839L644.644301,908.745487L645.851068,902.163596L643.078889,899.537680L644.202046,887.761111L651.996730,889.307174L646.420112,882.017090L638.279965,877.204581L636.991186,872.708704L629.351155,859.652367L622.962076,857.427213L620.835745,854.360699L616.096692,854.860900L619.991903,862.911802L620.767283,869.162955L612.882633,873.109598L607.658160,872.628124L601.229778,876.707615L591.460701,884.890885L593.452061,886.135470L597.537985,892.114315L594.435968,898.232245L595.713213,907.929772L600.264449,914.711489L607.985642,910.145542L612.890388,912.617203L616.375320,916.813909L625.454006,911.893883L631.073562,913.879392L648.514749,914.047683L654.614287,910.652758L658.041646,911.124867L661.587671,901.713665L658.623929,901.225172Z ">
  </path>
  <path class="antique" d="M504.966593,1109.170576L502.209572,1098.145796L498.620363,1094.432975L499.736833,1087.506514L497.084100,1074.465827L499.951327,1065.517555L497.750221,1060.666606L490.290750,1058.275569L482.632418,1053.453818L473.550373,1053.296005L470.537596,1057.208552L465.034145,1060.152378L470.853316,1060.746070L472.392086,1059.587887L488.655649,1062.959456L491.359580,1065.588882L492.992289,1073.671082L492.966358,1089.317899L490.594903,1101.555808L489.994869,1115.352664L493.048733,1122.916051L491.485904,1127.168617L495.380711,1145.737051L490.999209,1154.526266L486.941534,1172.504467L491.832080,1187.481681L491.117010,1201.685111L487.303454,1207.349523L492.928066,1217.795895L497.649265,1214.395240L499.435409,1211.521518L497.691433,1210.661463L498.072109,1193.186880L502.347462,1184.186127L511.124103,1177.731769L512.962067,1170.709466L518.352135,1161.463308L520.233606,1161.778820L522.948289,1154.109111L523.437661,1147.411686L521.489547,1143.663873L513.185792,1132.811957L510.407447,1129.022128L508.489717,1124.136085L508.216142,1115.959170L507.149831,1112.702179L504.966593,1109.170576Z M421.739005,1047.891037L422.175010,1051.077937L430.655713,1052.656731L430.047485,1048.678762L421.739005,1047.891037Z M432.904959,1037.054345L432.207169,1043.927110L436.507299,1043.449102L432.904959,1037.054345Z M410.317097,1018.745379L409.855655,1022.543367L413.581642,1024.036905L412.322212,1028.386567L414.727497,1033.418745L417.755091,1031.869148L412.926973,1018.848136L410.317097,1018.745379Z ">
  </path>
  <path class="apayao" d="M324.178355,362.060446L315.745193,353.763987L312.286143,354.184616L311.188378,349.230700L316.582657,327.526071L320.825017,325.267155L321.058731,315.454932L319.665891,302.540219L316.193487,295.134584L299.472393,285.728259L296.082547,285.568218L290.648761,280.758093L274.185607,274.350715L273.097486,268.750696L268.639979,269.313951L265.804876,276.552258L261.916802,278.866145L261.714111,288.557505L266.759619,307.940671L268.797329,312.916739L266.471799,319.472764L268.951300,331.492446L268.049626,333.721280L274.865752,338.214845L279.124492,349.422401L284.182116,348.785329L288.635802,351.702529L290.434341,356.023168L293.770906,368.094402L301.034474,371.554870L305.619156,375.069288L307.374323,369.612647L321.769177,373.080027L322.283959,370.368760L326.255190,367.414302L324.178355,362.060446Z ">
  </path>
  <path class="aurora" d="M365.589825,649.050408L363.504156,642.400254L365.699155,636.833595L368.698468,638.308549L373.067418,627.799169L372.477957,620.585661L378.563424,612.617106L381.017933,606.635445L381.525198,593.330339L376.649170,593.733494L372.097283,582.575448L372.015150,576.783029L380.698866,568.074669L381.268568,564.362783L389.631984,555.913791L397.400542,554.267061L399.351001,551.251586L410.478383,548.132229L420.240793,534.061579L425.064359,535.684901L421.501487,541.043736L421.967622,545.267451L416.602100,552.412121L414.110292,560.213524L417.939425,559.061236L420.186143,551.758735L426.567310,542.500981L432.093327,536.756712L430.463937,510.686400L431.482958,504.583247L433.549995,503.713629L419.091532,502.945664L413.094964,507.879145L399.264310,530.923500L394.559908,538.267904L377.108614,557.824684L362.785899,574.652447L349.291007,589.123906L346.454469,591.724407L354.359697,609.816763L358.105331,617.327106L361.221179,625.261769L360.014743,655.283356L359.594085,658.472442L361.783839,668.552060L363.307201,671.983445L366.129457,682.092549L365.320788,676.663056L368.723295,658.341923L370.329499,656.624997L365.589825,649.050408Z ">
  </path>
  <path class="basilan" d="M536.431455,1645.721918L531.415814,1646.361154L519.071496,1656.824213L514.476045,1653.772863L509.611961,1660.233214L518.946941,1668.251450L517.669490,1672.868821L527.963125,1686.085266L536.362566,1685.489273L552.224419,1679.028864L551.374644,1672.601223L562.469259,1664.582987L564.622335,1661.467329L554.911536,1655.753710L544.937126,1654.427313L544.268478,1649.780687L540.232278,1650.202590L536.431455,1645.721918Z ">
  </path>
  <path class="bataan" d="M277.197538,689.998968L275.462339,695.567867L269.181912,694.510241L262.359894,705.108219L258.422429,710.411818L259.405966,717.722197L268.913423,724.285684L272.810441,725.637880L276.236781,730.994050L275.010583,737.324898L277.491977,744.823349L284.774385,747.388625L286.638932,750.213368L290.000749,747.768467L293.873002,749.439752L299.526211,739.193689L294.088657,722.325712L289.635374,714.664812L288.379054,706.354093L290.759219,701.510918L288.293748,702.300932L282.743691,697.564081L281.484732,692.477801L277.197538,689.998968Z ">
  </path>
  <path class="batanes" d="M311.901962,55.867011L311.754671,59.512242L315.170429,67.040961L317.577375,63.536094L311.901962,55.867011Z M325.141011,40.315523L322.607213,42.343793L319.468740,56.603053L322.668226,56.818095L325.093821,52.806078L325.141011,40.315523Z M303.634523,0.000000L300.915949,1.486073L300.197599,8.585767L297.722010,13.298702L301.208708,16.998642L306.567391,8.885923L305.614600,1.648519L303.634523,0.000000Z ">
  </path>
  <path class="batangas" d="M334.659607,835.040185L336.358027,839.194832L342.980842,842.506888L345.851767,838.935368L340.793729,838.968136L334.659607,835.040185Z M302.181260,771.995598L301.660051,775.307603L304.633994,780.534068L302.306659,783.326015L306.257514,784.819623L309.828271,800.401763L308.550720,803.226462L312.225450,819.619463L315.202548,825.268942L317.442231,823.678386L314.602046,814.718054L320.048212,817.330089L321.092942,815.234643L317.888925,809.621483L322.120149,806.115469L337.067127,810.400993L340.697707,814.363965L341.323206,821.948736L343.304485,824.286032L339.043863,832.865283L344.446335,830.300069L348.285299,824.145823L355.134788,826.626893L357.990478,832.702895L356.606347,841.459673L361.140601,843.163681L382.712556,845.758088L387.246677,840.404434L392.937317,836.986050L395.848072,839.005473L400.242882,835.375549L395.823684,829.067059L395.322878,823.382700L396.783726,819.666273L393.620139,817.376788L380.213272,813.239728L373.837591,810.062061L375.430450,805.681800L374.605611,802.779976L368.998574,795.414955L366.604456,785.696104L364.264225,782.643576L355.883390,780.321300L349.286846,780.608854L350.252715,781.687516L340.116799,788.404010L330.422539,791.481164L329.757772,788.695019L320.618780,782.392245L315.008283,782.075490L310.963850,777.863604L311.557208,775.031863L305.115281,772.790275L302.181260,771.995598Z ">
  </path>
  <path class="benguet" d="M283.049374,466.883984L281.306668,462.878784L273.088065,455.644381L270.226377,458.113881L260.660742,459.722021L259.930263,465.568088L261.180049,479.505282L260.663043,484.091430L258.469305,487.854781L255.517498,493.900848L257.441244,495.133826L250.224889,507.115861L259.524584,536.512389L259.438394,537.203226L263.278107,538.992402L271.669003,541.319491L274.922476,542.970902L286.252168,541.368534L284.477771,536.508822L287.773341,527.144742L291.850357,527.397313L294.418207,514.186721L292.293521,505.769413L292.785992,495.261337L291.566859,493.670571L288.847093,474.847805L285.708676,468.182492L283.049374,466.883984Z ">
  </path>
  <path class="biliran" d="M730.722658,1066.641857L724.399557,1069.596158L724.326319,1073.881498L728.626703,1079.211564L728.986508,1083.882628L737.509853,1094.642165L751.914083,1091.492720L752.390038,1085.724328L748.730667,1083.052888L742.474092,1070.358026L734.846537,1066.794877L730.722658,1066.641857Z M718.697132,1054.167875L715.907278,1057.116272L719.612339,1060.486615L718.697132,1054.167875Z ">
  </path>
  <path class="bohol" d="M693.840141,1307.694975L685.395931,1313.554490L687.608754,1319.175726L691.446121,1318.032799L697.639462,1310.258896L693.840141,1307.694975Z M768.652652,1248.277338L762.114774,1251.120642L768.067564,1254.513171L768.652652,1248.277338Z M734.928131,1245.829124L733.799915,1247.979322L720.890174,1248.158199L719.733293,1252.891132L712.528295,1258.149998L705.844571,1270.203742L694.471549,1277.827939L688.674245,1285.608730L686.900171,1290.287973L687.637701,1296.381301L692.987052,1296.299496L695.780697,1299.377758L694.379608,1305.598368L697.596406,1309.622067L709.216474,1313.101109L720.305674,1314.306001L728.516753,1311.995519L735.347953,1313.167756L747.581793,1309.436168L751.323243,1306.827779L751.864838,1300.033310L755.625896,1298.751295L759.316260,1294.021784L763.286663,1298.629814L768.241956,1297.456463L770.468585,1294.305760L770.218888,1288.842350L765.838862,1287.005314L762.990253,1281.815407L766.237389,1277.165368L764.220652,1273.634847L762.521535,1261.255100L758.967909,1257.880067L745.971194,1253.283769L743.073409,1248.098573L741.618610,1251.271433L734.928131,1245.829124Z ">
  </path>
  <path class="bukidnon" d="M833.238274,1431.706184L826.754921,1432.129254L810.115415,1430.372777L805.585107,1444.201475L806.274043,1450.510979L786.730437,1450.804320L784.928225,1463.249361L782.112827,1472.347398L782.771764,1479.015789L781.471741,1482.417747L775.800105,1483.710255L778.193838,1485.902627L783.482475,1501.698274L800.888643,1528.458206L804.042632,1531.647522L807.215037,1541.069248L811.757602,1543.870544L812.349591,1546.162281L814.746396,1553.419664L817.043360,1563.994873L822.732721,1568.258204L826.844602,1566.632560L831.005806,1569.870920L838.914080,1569.304129L840.463853,1563.904931L849.364706,1562.314339L849.980343,1555.582842L854.877513,1547.520272L858.222405,1548.989268L857.894568,1541.470086L862.843657,1540.870584L865.250921,1543.372687L874.004518,1543.516405L876.896912,1532.968120L876.244495,1526.538108L873.426120,1521.183333L872.975446,1510.126614L870.691356,1504.503021L868.304564,1501.522960L867.359253,1497.446713L868.146287,1490.775976L865.948781,1488.158192L865.875691,1482.009833L860.525645,1465.226739L854.541801,1460.510098L852.516711,1456.536619L850.426650,1445.973111L848.849415,1431.861659L833.238274,1431.706184Z ">
  </path>
  <path class="bulacan" d="M354.334319,658.390965L347.997133,655.772999L341.178941,649.935177L328.995596,652.285533L325.400229,655.836197L322.867076,656.287274L323.682048,665.307589L327.371869,676.428100L320.638877,681.355476L321.302660,684.498940L312.019816,691.454057L306.726030,691.342933L306.231144,700.162166L300.470656,708.183113L314.883163,710.444587L318.632232,709.438237L320.540650,713.300907L327.789928,717.782607L332.043655,718.304115L340.475605,707.479481L346.805843,709.859658L353.120803,703.185684L360.229356,700.325786L368.258297,694.368800L366.129457,682.092549L363.307201,671.983445L361.783839,668.552060L359.594085,658.472442L354.334319,658.390965Z ">
  </path>
  <path class="cagayan" d="M378.397088,263.117939L376.776259,264.805467L380.638702,268.928343L378.397088,263.117939Z M401.399313,377.354132L399.916261,366.531800L396.259817,353.019472L395.756807,345.604212L397.828017,342.715333L395.327745,334.664395L395.696502,329.172671L392.073284,322.873608L403.064694,305.525087L404.748090,297.826098L400.729970,285.646455L392.866068,278.643026L390.412052,271.172003L382.736637,270.259248L380.650210,280.030112L382.167283,286.257641L376.226292,291.002256L371.326699,297.851732L365.267240,299.914450L354.619610,297.517382L318.942519,282.607024L307.081474,275.389632L292.193848,267.553975L282.682398,260.068982L265.308779,260.000108L260.358654,263.111029L261.045319,263.299151L261.916802,278.866145L265.804876,276.552258L268.639979,269.313951L273.097486,268.750696L274.185607,274.350715L290.648761,280.758093L296.082547,285.568218L299.472393,285.728259L316.193487,295.134584L319.665891,302.540219L321.058731,315.454932L320.825017,325.267155L316.582657,327.526071L311.188378,349.230700L312.286143,354.184616L315.745193,353.763987L324.178355,362.060446L326.255190,367.414302L328.220693,370.465727L330.324912,369.423173L339.021137,376.500826L351.567175,388.631938L368.171325,387.481930L370.930599,385.505808L405.181655,383.965482L401.399313,377.354132Z M298.867553,225.255893L286.330143,227.877032L285.409856,230.939715L289.978568,233.054914L303.210443,231.306587L304.530176,228.249697L298.867553,225.255893Z M347.595859,213.793398L343.051856,217.387839L342.423622,223.256388L345.215432,227.054359L341.294150,230.639487L343.284903,235.278663L347.231466,234.660373L347.960996,229.376165L353.292173,225.672912L356.171466,221.136753L350.129892,214.002685L347.595859,213.793398Z M273.152391,194.302254L272.286585,202.449165L275.273558,209.508481L279.777517,211.080024L273.152391,194.302254Z M287.926569,168.407053L285.514074,171.711359L289.727981,181.262846L300.445752,184.921350L303.748847,183.038940L298.605728,168.919882L296.478649,171.426304L287.926569,168.407053Z M341.005427,147.227135L334.033961,149.996475L334.997865,153.793915L341.340293,158.500455L344.839713,154.443575L341.005427,147.227135Z ">
  </path>
  <path class="camarines_norte" d="M560.867053,813.368235L563.415507,811.036727L560.867826,800.787395L554.635617,794.873843L554.473636,786.735086L551.114719,786.702430L542.549952,776.341907L536.086629,770.482146L526.113761,765.716200L523.850522,761.229555L517.193902,758.895672L512.846549,760.146205L509.744411,765.350403L504.386275,761.217852L496.383031,758.380301L487.024812,765.328112L481.335362,777.191530L483.473572,783.667290L479.937789,786.345886L479.227346,788.980120L482.421112,791.358452L487.906871,789.918569L492.766746,781.280816L514.241323,790.453886L530.535670,796.959938L547.125550,806.856305L560.584663,817.683063L560.867053,813.368235Z ">
  </path>
  <path class="camarines_sur" d="M618.403375,801.211591L614.318039,804.578626L615.157703,808.506496L621.643612,806.141103L618.403375,801.211591Z M616.833999,849.795809L612.604624,841.568452L615.860062,830.488203L623.831041,832.901505L625.325050,831.251325L642.211737,833.990740L645.561090,829.326523L654.280577,830.906599L654.967951,828.479252L643.463321,819.019952L641.497967,820.664342L631.352540,813.983015L626.596922,807.819381L625.363078,812.153943L614.948983,810.936196L603.834979,807.773796L598.255611,802.240092L599.268253,807.957250L595.518605,806.412271L595.085756,801.718819L591.788635,795.449952L586.357734,790.663086L578.806247,790.030804L579.912356,794.347889L575.327977,798.253701L583.207434,807.182420L584.312624,814.374441L588.224094,822.548245L580.086118,830.130548L569.251879,830.380650L560.411481,825.062084L559.745912,820.030839L560.584663,817.683063L547.125550,806.856305L530.535670,796.959938L506.554686,804.552880L508.073684,805.451647L509.596106,810.035201L514.156643,810.884815L518.565521,816.001335L528.259386,821.102579L537.529362,828.503772L542.596700,834.845030L539.221612,839.636632L547.189313,848.260209L576.484771,862.313413L581.344457,866.501914L583.472299,875.050765L587.286120,881.657211L591.460701,884.890885L601.229778,876.707615L607.658160,872.628124L612.882633,873.109598L620.767283,869.162955L619.991903,862.911802L616.096692,854.860900L620.835745,854.360699L616.833999,849.795809Z ">
  </path>
  <path class="camiguin" d="M787.479189,1352.890047L783.286762,1353.723255L780.130648,1357.494422L782.781264,1366.697605L786.953808,1369.945291L792.549374,1371.023915L798.729885,1368.729916L795.070882,1359.162175L787.479189,1352.890047Z ">
  </path>
  <path class="capiz" d="M585.839341,1092.856525L578.754937,1092.726798L579.151096,1097.304354L576.088539,1097.726189L576.034485,1091.786055L579.607450,1089.188172L573.057504,1085.747732L567.893141,1077.923766L557.346596,1078.201944L553.633940,1086.169679L544.658626,1088.636610L542.767597,1084.773108L538.792540,1091.851476L536.041157,1093.355484L525.098011,1093.251501L521.063026,1098.957926L518.893452,1105.816624L514.586824,1110.403539L507.149831,1112.702179L508.216142,1115.959170L508.489717,1124.136085L510.407447,1129.022128L513.185792,1132.811957L520.714136,1122.736061L528.200443,1126.883530L539.309428,1128.281214L543.512312,1125.551267L546.045337,1120.641931L548.323563,1123.387035L551.881734,1121.693676L554.590465,1124.422398L567.520480,1122.759465L568.186932,1127.764647L575.518814,1126.813429L579.220637,1119.393811L578.383801,1116.798271L583.936611,1113.766853L582.054164,1107.497166L593.339188,1102.859987L592.595168,1097.070645L596.373454,1085.613324L585.839341,1092.856525Z ">
  </path>
  <path class="catanduanes" d="M673.953200,787.076361L666.276177,791.566427L668.006462,802.049616L670.398126,806.118924L669.651233,812.238091L671.442872,822.385746L668.676145,833.175012L663.251163,837.832204L666.867099,843.730421L675.368456,848.706690L681.392699,854.870150L683.081536,849.669644L692.690903,846.746788L694.664224,850.329892L696.398827,844.770613L694.972666,840.849690L702.196145,837.538858L698.218228,832.130247L700.593694,824.085081L697.912982,812.619152L692.381581,809.668182L691.382996,806.040572L684.407985,805.220157L682.760328,798.303967L673.953200,787.076361Z ">
  </path>
  <path class="cavite" d="M333.496034,744.888774L329.295365,745.538006L325.303652,749.480656L318.432283,759.817745L312.502338,765.355084L304.596244,768.197310L305.115281,772.790275L311.557208,775.031863L310.963850,777.863604L315.008283,782.075490L320.618780,782.392245L329.757772,788.695019L330.422539,791.481164L340.116799,788.404010L350.252715,781.687516L349.286846,780.608854L348.907458,770.849057L347.221973,760.204608L342.785268,760.806469L343.130695,757.714018L341.898975,753.005341L338.736412,747.930859L336.699478,743.080953L333.496034,744.888774Z ">
  </path>
  <path class="cebu" d="M711.236045,1232.452947L707.909257,1235.901530L710.136320,1238.065880L711.236045,1232.452947Z M702.037221,1227.021122L697.651207,1229.683204L696.720541,1233.820210L699.027137,1237.344802L702.450395,1235.855947L706.217916,1229.441359L702.037221,1227.021122Z M744.001248,1182.221612L738.104529,1186.338658L731.523502,1183.171716L732.391961,1197.606624L736.275121,1194.117147L751.197596,1190.847337L752.023786,1187.015378L744.001248,1182.221612Z M755.814208,1170.959558L749.642668,1177.452477L750.232835,1180.828608L755.814208,1170.959558Z M698.692587,1116.651047L692.302500,1117.463177L691.638762,1122.883285L687.660861,1127.428071L689.760246,1135.933425L685.094686,1145.282449L688.539611,1149.854094L681.115594,1177.939733L681.391630,1180.347147L674.369368,1191.105565L672.461582,1199.298870L672.047518,1207.860184L668.681844,1212.741554L668.227392,1217.694253L660.177076,1228.306580L661.117636,1235.221353L655.647421,1248.247024L646.191530,1260.135475L646.085166,1265.910915L642.663860,1266.419675L642.329174,1272.420709L645.691364,1274.489113L646.211413,1280.377921L641.844516,1290.528706L641.864545,1299.589180L639.897744,1324.558460L640.906235,1334.020964L644.194606,1334.781839L650.046100,1325.593949L653.833354,1322.148784L661.745801,1294.615480L661.304141,1289.008300L664.593502,1282.731528L667.997720,1280.764765L670.107441,1255.607049L672.717964,1256.454290L674.602276,1248.387228L680.596508,1239.585049L690.198908,1237.059602L692.274078,1232.708835L704.853861,1221.418670L702.236249,1217.599633L704.793604,1208.009749L702.900631,1192.171354L699.031408,1178.234293L702.665765,1163.078318L699.597486,1157.507419L700.365657,1150.300559L699.349175,1142.868015L696.150222,1142.458996L693.870405,1138.206319L697.521416,1131.889938L697.031333,1125.091985L699.796647,1119.404287L698.692587,1116.651047Z M664.326983,1114.118587L665.481050,1133.304005L674.084110,1131.551021L669.371853,1124.831417L667.515158,1117.916664L664.326983,1114.118587Z ">
  </path>
  <path class="compostela_valley" d="M948.578349,1499.831898L943.547217,1501.916776L937.728956,1507.284419L931.942034,1504.213190L929.857542,1500.042264L911.336156,1500.348422L898.409655,1500.048115L903.150360,1525.240916L910.322950,1531.777253L914.256859,1540.161190L923.030542,1522.417443L927.741953,1526.917937L924.494804,1535.963398L928.460672,1541.118342L927.392916,1553.289934L920.625118,1554.983340L923.236165,1560.857044L919.898808,1562.045572L919.863658,1574.401849L922.403893,1575.992386L921.417930,1587.381039L927.714756,1597.612652L927.112116,1601.949547L930.257248,1606.052725L933.528835,1608.011447L935.652122,1605.386630L968.345989,1585.063553L966.351733,1564.640015L962.504516,1548.787094L954.637955,1523.425974L947.228755,1503.216362L948.578349,1499.831898Z ">
  </path>
  <path class="davao_del_norte" d="M907.871016,1621.196280L906.306801,1622.899052L912.285741,1625.936412L907.871016,1621.196280Z M908.358128,1593.625162L904.559760,1604.053156L905.652304,1608.386596L909.668208,1608.394732L911.790032,1620.816505L917.060991,1628.860425L919.224741,1623.905245L916.780430,1613.534532L918.289279,1603.365996L914.242118,1597.661747L908.358128,1593.625162Z M898.409655,1500.048115L868.304564,1501.522960L870.691356,1504.503021L872.975446,1510.126614L873.426120,1521.183333L876.244495,1526.538108L876.896912,1532.968120L874.004518,1543.516405L865.250921,1543.372687L862.843657,1540.870584L857.894568,1541.470086L858.222405,1548.989268L858.673337,1550.696662L865.984236,1550.313377L878.714368,1550.410341L884.639858,1551.442277L886.668121,1571.366834L887.622311,1588.743657L898.390975,1588.160537L904.041012,1581.389301L908.281336,1581.619506L912.195501,1577.905466L918.576000,1573.875961L919.863658,1574.401849L919.898808,1562.045572L923.236165,1560.857044L920.625118,1554.983340L927.392916,1553.289934L928.460672,1541.118342L924.494804,1535.963398L927.741953,1526.917937L923.030542,1522.417443L914.256859,1540.161190L910.322950,1531.777253L903.150360,1525.240916L898.409655,1500.048115Z ">
  </path>
  <path class="davao_del_sur" d="M889.150410,1799.499612L884.054434,1803.621520L884.548028,1806.983767L892.307941,1807.267748L892.313814,1801.117068L889.150410,1799.499612Z M897.089180,1792.519166L894.749807,1796.071942L896.208000,1804.391658L897.863906,1804.304000L899.444895,1795.734185L897.089180,1792.519166Z M858.673337,1550.696662L860.310550,1557.833733L858.293090,1562.532897L859.526134,1572.496905L857.636429,1575.534261L860.332926,1587.250138L858.821316,1592.830506L866.417956,1604.753189L866.374659,1609.647570L869.059876,1614.326903L865.562862,1614.136375L863.952334,1621.115644L854.775926,1635.470398L848.799991,1637.888361L851.352075,1645.179645L852.760923,1649.021026L853.205040,1653.999558L857.846470,1659.375419L859.997448,1664.226561L860.815572,1670.910152L861.205106,1673.936983L858.722863,1678.695788L859.916175,1685.628310L868.938154,1694.503174L883.282469,1696.183713L885.250800,1694.782474L890.505937,1698.390141L894.621012,1706.183971L895.911621,1717.409038L898.313775,1720.670757L898.998165,1726.851866L896.600442,1733.309881L895.635839,1751.031525L887.416162,1771.714578L878.909625,1781.623722L880.459530,1783.941157L887.081502,1785.118042L902.270619,1757.979262L913.118019,1742.819358L916.411774,1730.905958L916.595291,1713.582812L911.985499,1703.520586L907.693356,1691.398047L903.981097,1684.491214L901.240879,1683.688365L901.635673,1676.323407L898.770116,1671.455936L894.198426,1672.763665L886.954858,1662.311081L885.898404,1666.002949L877.398487,1662.278369L879.443407,1658.447520L877.562891,1648.604973L878.129071,1639.903145L888.148944,1625.863968L887.542843,1618.529388L891.963592,1612.157870L899.415617,1611.040615L904.483734,1602.220710L901.958298,1588.923652L906.606216,1582.484321L908.281336,1581.619506L904.041012,1581.389301L898.390975,1588.160537L887.622311,1588.743657L886.668121,1571.366834L884.639858,1551.442277L878.714368,1550.410341L865.984236,1550.313377L858.673337,1550.696662Z ">
  </path>
  <path class="davao_oriental" d="M948.578349,1499.831898L947.228755,1503.216362L954.637955,1523.425974L962.504516,1548.787094L966.351733,1564.640015L968.345989,1585.063553L935.652122,1605.386630L933.528835,1608.011447L934.105795,1610.044898L937.880818,1613.254062L938.187200,1625.043566L943.377493,1631.308759L948.709383,1633.536250L950.376525,1639.520974L949.594086,1644.527536L952.033912,1647.377880L949.809047,1657.700732L952.602474,1665.292383L952.205290,1671.494499L954.322210,1677.071366L959.891504,1684.632648L959.563024,1689.839047L965.514087,1693.962071L965.199728,1687.452623L967.785566,1682.664561L965.817850,1673.164505L967.260344,1669.039141L965.467575,1659.493447L968.797474,1645.384160L960.015600,1633.768796L959.093625,1628.361396L960.711018,1622.388320L965.501196,1624.235980L972.611875,1639.256832L977.595671,1639.830645L976.965439,1634.008363L970.662117,1627.737318L974.479620,1616.311260L981.661351,1617.617873L985.791807,1614.492856L989.463593,1602.930105L992.320589,1602.067630L993.408267,1592.514929L996.321228,1592.860877L999.735631,1584.670906L994.595816,1579.209738L993.903512,1564.435500L997.714151,1564.240291L997.708127,1558.089627L994.415247,1549.535050L991.222759,1535.031936L992.925399,1532.783443L985.004508,1529.992680L979.491817,1521.812035L973.273084,1519.702636L969.892054,1513.453794L969.719389,1510.331909L968.407565,1507.964611L967.948341,1499.725573L948.578349,1499.831898Z ">
  </path>
  <path class="dinagat_islands" d="M870.418646,1210.962934L868.404891,1212.518321L866.843167,1223.385530L861.653603,1222.833855L862.997944,1226.437907L859.372564,1228.222436L860.466169,1237.398520L862.915922,1242.158420L859.889709,1244.226924L857.272676,1251.627849L859.852198,1256.952136L864.285951,1256.595720L868.839150,1260.912614L868.169090,1267.466749L876.718418,1274.251947L879.060329,1283.341607L883.038540,1281.880828L883.258149,1277.570824L879.846094,1273.688678L879.061849,1266.887097L880.691853,1259.450728L874.231784,1244.681527L875.500661,1243.055924L872.729252,1231.563580L875.311921,1220.289799L870.418646,1210.962934Z ">
  </path>
  <path class="eastern_samar" d="M871.764037,1169.823668L868.822983,1177.193023L880.064870,1185.795343L885.021041,1184.853374L884.866455,1180.730421L875.040892,1178.880476L875.031046,1171.965721L871.764037,1169.823668Z M797.610385,998.860921L798.172888,1010.307730L795.092277,1012.474428L797.632091,1033.045946L807.136507,1033.022541L814.752576,1047.406120L818.865608,1070.140699L813.166648,1075.261576L812.133690,1079.358900L815.163894,1088.429760L815.131906,1094.184109L817.780890,1098.457742L824.935387,1102.717444L820.057685,1112.196199L822.887109,1135.505683L826.731460,1132.719677L829.483801,1135.608551L839.256561,1139.667195L850.954745,1131.746169L856.788894,1136.030386L864.425640,1132.686911L866.328652,1139.472048L873.569165,1147.197815L876.046103,1147.176751L864.644969,1126.584401L857.064498,1122.006849L856.003477,1128.209887L850.870796,1126.292181L850.728618,1121.130412L856.990363,1113.988860L858.920194,1107.464400L851.792641,1103.438520L846.528393,1096.329730L845.185070,1091.525486L841.130545,1087.500718L839.020955,1079.871901L835.809299,1076.820529L839.542083,1071.074422L835.850091,1053.902514L830.230758,1044.365329L831.372853,1034.076633L837.900193,1025.302529L831.043170,1020.888671L829.072485,1016.862657L836.280293,1011.181943L828.858052,1002.190381L824.430300,999.139101L820.709451,1001.443665L818.602857,998.748803L815.117318,999.639289L812.353045,1001.655198L800.841406,988.955566L798.360634,992.460340L797.610385,998.860921Z ">
  </path>
  <path class="guimaras" d="M560.939801,1178.044941L556.609235,1182.235654L548.841525,1194.357878L547.414880,1198.259940L549.093741,1206.343358L545.497424,1206.927687L549.522597,1217.622926L552.494849,1218.394267L555.035206,1213.647303L557.256257,1215.725054L562.301145,1214.041054L566.074296,1207.354204L569.131459,1193.910297L566.869274,1182.445959L560.939801,1178.044941Z ">
  </path>
  <path class="ifugao" d="M347.888858,438.735119L337.934350,438.680058L329.234526,440.174946L317.811679,447.250372L300.496341,446.670784L292.576153,448.264875L294.187505,455.987900L290.264440,467.653057L285.708676,468.182492L288.847093,474.847805L291.566859,493.670571L292.785992,495.261337L305.984055,492.223589L319.517027,489.538949L327.944056,488.557205L332.740122,483.330601L333.719859,477.566319L335.100815,472.746558L340.043556,470.766581L342.173707,466.850100L352.658259,465.141419L356.462954,459.545469L352.515081,447.463036L349.816206,439.720193L347.888858,438.735119Z ">
  </path>
  <path class="ilocos_norte" d="M258.940597,265.844376L252.936378,264.286570L246.934306,255.489433L240.038890,258.995084L241.795420,264.513253L239.257635,268.570597L225.381622,267.531686L220.482627,273.602677L225.334042,282.821897L227.321299,290.839986L224.463922,303.694846L222.470670,307.200861L222.919597,313.564048L220.467363,319.666913L220.656216,327.002468L223.932943,331.937811L218.573540,341.035952L220.319659,342.535224L228.799411,343.824297L230.714591,350.243817L229.538747,355.467902L231.255550,363.629955L233.547061,365.781707L235.244572,357.670912L238.198160,353.426281L246.736469,350.453128L249.380152,343.675840L265.161619,336.756145L268.049626,333.721280L268.951300,331.492446L266.471799,319.472764L268.797329,312.916739L266.759619,307.940671L261.714111,288.557505L261.916802,278.866145L261.045319,263.299151L260.358654,263.111029L258.940597,265.844376Z ">
  </path>
  <path class="ilocos_sur" d="M231.255550,363.629955L229.538747,355.467902L230.714591,350.243817L228.799411,343.824297L220.319659,342.535224L220.610703,346.723878L223.312492,351.610022L221.147807,365.471861L217.816030,368.166848L217.927420,383.878992L227.774746,391.800427L231.944476,401.637396L229.785452,408.843787L232.028483,425.693117L237.324508,442.119683L238.699659,450.826656L236.146476,457.312040L247.296901,458.480806L247.924417,467.388897L250.695977,469.359510L253.705273,477.140987L253.109754,481.676975L258.469305,487.854781L260.663043,484.091430L261.180049,479.505282L259.930263,465.568088L260.660742,459.722021L270.226377,458.113881L273.088065,455.644381L273.262664,449.454592L270.261329,439.229328L270.275809,434.711008L272.769776,429.753326L276.619502,426.035517L270.577901,426.070738L267.814982,429.385290L257.819222,423.621106L257.411692,418.140930L248.624392,411.544629L243.694304,412.057781L240.773027,406.233897L243.405981,397.710539L243.201513,392.368410L235.716040,389.648868L230.812163,390.092911L231.869354,384.333511L231.515831,373.268164L233.547061,365.781707L231.255550,363.629955Z ">
  </path>
  <path class="iloilo" d="M606.160208,1131.172429L602.379601,1133.336660L604.168860,1137.831293L606.160208,1131.172429Z M606.214447,1112.831906L605.670222,1116.846194L609.418723,1115.255703L606.214447,1112.831906Z M610.585221,1089.211576L607.349814,1090.324063L611.508420,1094.974061L610.585221,1089.211576Z M502.282785,1207.496747L505.982468,1197.918682L509.663047,1197.828631L515.692825,1191.519265L519.642044,1191.879134L528.530753,1187.915219L553.607617,1185.782415L555.637773,1175.666838L562.125265,1173.165918L568.201141,1174.335688L572.492131,1166.058357L572.671672,1161.513460L569.663362,1155.637637L570.666598,1150.833398L579.458469,1145.510251L587.759489,1143.270012L592.900443,1138.270626L593.103464,1132.560751L597.138071,1127.526258L601.685509,1130.447897L603.964704,1128.067343L599.989863,1123.078433L599.463054,1117.138303L603.928145,1104.413144L601.211272,1100.518104L600.881229,1088.733570L602.892869,1082.988582L600.805662,1080.520425L596.373454,1085.613324L592.595168,1097.070645L593.339188,1102.859987L582.054164,1107.497166L583.936611,1113.766853L578.383801,1116.798271L579.220637,1119.393811L575.518814,1126.813429L568.186932,1127.764647L567.520480,1122.759465L554.590465,1124.422398L551.881734,1121.693676L548.323563,1123.387035L546.045337,1120.641931L543.512312,1125.551267L539.309428,1128.281214L528.200443,1126.883530L520.714136,1122.736061L513.185792,1132.811957L521.489547,1143.663873L523.437661,1147.411686L522.948289,1154.109111L520.233606,1161.778820L518.352135,1161.463308L512.962067,1170.709466L511.124103,1177.731769L502.347462,1184.186127L498.072109,1193.186880L497.691433,1210.661463L499.435409,1211.521518L502.282785,1207.496747Z ">
  </path>
  <path class="isabela" d="M435.728311,500.395441L439.436445,485.290744L441.481823,480.753637L443.882495,467.539814L446.144552,461.403948L444.668047,450.573198L447.800804,440.335001L446.502768,432.121153L443.585451,434.458666L435.073425,427.938335L436.409620,425.527266L435.523616,414.038609L431.647021,412.382569L428.202684,407.334874L419.093076,408.259303L415.762130,406.334432L406.196676,388.650663L405.181655,383.965482L370.930599,385.505808L368.171325,387.481930L351.567175,388.631938L353.373978,390.722864L354.754295,396.044034L348.535165,401.677075L345.273231,415.400178L346.775177,423.025027L350.164876,436.909422L349.816206,439.720193L352.515081,447.463036L356.462954,459.545469L352.658259,465.141419L342.173707,466.850100L340.043556,470.766581L335.100815,472.746558L333.719859,477.566319L341.540273,484.558895L343.291722,489.924826L358.650317,491.266365L362.605192,496.605330L383.398735,519.343355L413.705749,503.072061L419.091532,502.945664L433.549995,503.713629L435.728311,500.395441Z ">
  </path>
  <path class="kalinga" d="M339.021137,376.500826L330.324912,369.423173L328.220693,370.465727L326.255190,367.414302L322.283959,370.368760L321.769177,373.080027L307.374323,369.612647L305.619156,375.069288L301.034474,371.554870L293.770906,368.094402L290.938131,370.104611L295.349809,379.150355L294.945061,382.478879L284.899024,390.598924L286.305352,399.101300L282.672560,412.095008L281.216269,419.090999L293.694117,421.107054L299.771921,425.436094L307.971958,428.374138L316.527554,426.262446L319.764465,423.127791L323.988845,415.147838L330.596353,412.450335L334.421231,413.678823L345.273231,415.400178L348.535165,401.677075L354.754295,396.044034L353.373978,390.722864L351.567175,388.631938L339.021137,376.500826Z ">
  </path>
  <path class="la_union" d="M253.109754,481.676975L253.705273,477.140987L250.695977,469.359510L247.924417,467.388897L247.296901,458.480806L236.146476,457.312040L235.847831,461.891251L230.244232,471.993756L232.821968,480.152643L230.617566,493.835309L233.695068,498.540734L233.176795,506.065230L236.449625,510.076263L237.165152,519.103045L240.196347,524.148221L242.628484,532.863594L247.811931,535.728148L250.062997,540.552860L258.579958,540.191726L259.438394,537.203226L259.524584,536.512389L250.224889,507.115861L257.441244,495.133826L255.517498,493.900848L258.469305,487.854781L253.109754,481.676975Z ">
  </path>
  <path class="laguna" d="M378.361969,802.041368L383.034869,797.097807L397.648395,787.885077L400.868658,778.491208L404.472083,775.645423L407.734654,768.116728L404.824324,752.644336L396.725443,749.093792L391.670892,739.526721L386.224045,731.351603L381.232106,733.415558L376.499643,742.536154L381.631469,758.312424L376.032011,763.570457L373.442462,760.258330L372.897894,743.939835L365.246609,738.125490L360.524251,746.637187L358.077122,741.103383L352.897790,736.378298L349.691432,736.650586L346.208758,739.127484L345.580540,745.420643L346.833095,753.898215L343.130695,757.714018L342.785268,760.806469L347.221973,760.204608L348.907458,770.849057L349.286846,780.608854L355.883390,780.321300L364.264225,782.643576L366.604456,785.696104L368.998574,795.414955L374.605611,802.779976L378.361969,802.041368Z M368.011748,763.419658L364.047648,757.397372L364.989877,751.952417L368.011748,763.419658Z M365.820936,739.165602L365.600787,739.350285L365.744907,738.921401L365.820936,739.165602Z M365.541190,738.381394L365.445917,738.453841L365.425820,738.342830L365.541190,738.381394Z ">
  </path>
  <path class="lanao_del_norte" d="M778.132292,1465.438275L771.658596,1461.102576L757.386369,1460.035536L748.410909,1461.647130L749.953999,1466.169845L747.821837,1474.286215L741.470005,1478.018851L725.705372,1477.045430L717.732998,1481.870741L703.703746,1493.024408L699.628600,1500.390496L694.823498,1502.106133L692.462816,1505.266189L690.027605,1515.420645L688.586081,1519.815648L696.002779,1521.857619L701.175498,1527.622649L705.290575,1533.361936L709.504293,1534.880027L711.386323,1529.718062L728.653897,1535.573036L731.781166,1522.353135L731.743534,1516.328701L729.247514,1511.566408L740.549740,1503.438375L739.098470,1499.599298L747.883563,1497.991268L754.541899,1489.493944L753.243304,1484.434805L754.902370,1475.554204L772.580769,1481.105289L775.800105,1483.710255L781.471741,1482.417747L782.771764,1479.015789L782.112827,1472.347398L778.132292,1465.438275Z ">
  </path>
  <path class="lanao_del_sur" d="M811.757602,1543.870544L807.215037,1541.069248L804.042632,1531.647522L800.888643,1528.458206L783.482475,1501.698274L778.193838,1485.902627L775.800105,1483.710255L772.580769,1481.105289L754.902370,1475.554204L753.243304,1484.434805L754.541899,1489.493944L747.883563,1497.991268L739.098470,1499.599298L740.549740,1503.438375L729.247514,1511.566408L731.743534,1516.328701L731.781166,1522.353135L728.653897,1535.573036L711.386323,1529.718062L709.504293,1534.880027L720.001333,1535.797445L742.081530,1556.773710L744.680109,1565.408981L751.216142,1567.503226L755.785453,1557.192102L759.078716,1554.401336L767.214168,1550.341407L774.255399,1540.500117L779.758202,1537.390321L787.238295,1538.041257L795.994634,1545.052050L801.089404,1541.925870L812.349591,1546.162281L811.757602,1543.870544Z ">
  </path>
  <path class="leyte" d="M813.853659,1188.976327L802.752809,1178.847821L800.692471,1169.958076L801.518099,1141.224920L797.417061,1129.408968L798.597420,1126.268777L791.138585,1116.585515L787.560173,1099.359924L774.273880,1099.059568L773.775072,1104.331340L764.028530,1113.582182L758.918878,1114.865296L752.034787,1113.587977L748.078951,1109.304984L743.885504,1098.196059L739.407342,1096.329730L737.387425,1100.777558L728.389863,1090.200243L721.426043,1083.523873L718.526354,1087.379127L726.313346,1106.893000L726.959261,1112.370283L734.047992,1121.099987L735.531820,1135.159745L734.036210,1138.345408L736.687547,1146.198673L736.500617,1159.400606L741.570242,1158.767241L746.228216,1164.937624L750.305181,1164.673490L753.010309,1157.228128L751.211430,1151.811587L756.482959,1147.624331L766.327269,1156.197446L769.655253,1163.255968L775.982099,1170.511978L781.391601,1191.467775L779.608304,1191.452618L778.947222,1199.105951L775.568545,1209.136390L778.164505,1222.282292L784.862590,1230.724477L783.089124,1237.857804L782.832241,1243.654296L784.537627,1244.447706L791.009016,1236.567664L796.464947,1235.134869L794.227996,1218.846529L797.670293,1204.831102L809.294503,1204.884821L818.080981,1193.390275L813.853659,1188.976327Z ">
  </path>
  <path class="maguindanao" d="M833.562794,1645.068638L828.158058,1642.035958L822.629316,1643.793621L819.603439,1642.304726L817.251679,1616.652527L815.404722,1616.666570L815.026408,1603.897736L806.127494,1594.985495L809.125863,1605.764119L804.304741,1609.351886L807.453451,1614.897206L802.869283,1622.996071L797.653225,1619.652495L794.665185,1620.249713L787.740667,1612.587910L780.569306,1610.078780L777.525640,1606.565797L776.131843,1611.324596L771.318042,1608.255695L771.749394,1611.370180L765.290337,1617.588617L763.403398,1623.298720L746.725368,1622.849957L746.769150,1628.880264L743.551178,1630.912601L744.475074,1641.303157L746.259907,1645.945101L763.264432,1645.505700L765.258022,1648.956773L788.785188,1649.051452L795.013667,1641.937768L792.418380,1632.864247L802.579736,1630.399529L806.741808,1632.106982L804.335620,1641.981011L812.551711,1642.178505L815.965115,1650.665342L825.650883,1657.181808L831.825694,1653.596378L839.562370,1649.358783L833.562794,1645.068638Z M752.079724,1587.126259L749.069611,1592.969543L754.152031,1593.716330L757.366034,1596.429975L763.504161,1596.952352L753.479901,1586.583987L752.079724,1587.126259Z ">
  </path>
  <path class="marinduque" d="M442.955071,848.823493L442.459298,854.556968L438.561164,862.526176L440.690253,868.156762L441.009649,874.945554L446.507984,882.063900L456.031480,886.597105L457.889358,889.734927L464.994100,891.912142L473.714591,870.071070L470.575567,861.646145L466.320835,858.321287L462.892776,859.537905L461.838539,855.350512L457.432473,851.306889L455.693164,854.104692L448.376143,853.986663L442.955071,848.823493Z ">
  </path>
  <path class="masbate" d="M596.900402,962.123543L600.634092,979.336514L604.249991,983.751619L602.472772,988.068533L603.534402,993.327422L600.054798,1002.482603L605.875908,1004.819821L607.207036,1012.025731L600.580003,1022.479171L596.072434,1040.592983L598.883888,1043.611596L607.707099,1031.698519L611.281587,1029.003664L613.885427,1021.472891L615.866861,1020.855905L621.978664,1008.884403L633.218391,1007.546334L642.176931,1021.245088L641.208253,1023.517995L656.492413,1034.067271L654.141454,1037.528786L676.533881,1048.026671L682.923461,1052.733854L692.316063,1064.699516L694.133791,1062.197476L691.694828,1057.284560L692.277661,1049.494462L687.243790,1041.307041L688.977146,1036.186041L683.670431,1029.717611L678.903258,1021.537198L667.213573,1006.410324L665.821308,1009.688403L659.457232,1003.845191L656.195340,1006.962002L647.687836,993.709585L643.321572,992.580706L632.914809,982.647258L631.325238,978.297573L628.287514,979.109824L618.950603,971.837350L611.949767,973.330897L608.791163,968.007687L596.900402,962.123543Z M635.343610,951.321739L632.198895,959.113149L638.329615,968.818713L656.011225,991.477461L657.807663,989.043277L652.961617,974.596528L646.783916,960.605473L635.343610,951.321739Z M564.260270,896.950214L558.835572,901.551280L560.397459,909.243341L565.444156,914.804996L573.180912,915.612462L575.641589,920.611950L589.655643,934.051522L594.045715,934.343635L599.739968,939.083649L602.546626,944.666339L608.118601,951.029627L609.078795,947.991142L599.058993,936.721890L596.211285,927.786294L586.997147,925.514471L568.965692,899.225615L564.260270,896.950214Z ">
  </path>
  <path class="metropolitan_manila" d="M340.475605,707.479481L332.043655,718.304115L327.789928,717.782607L332.864614,724.598766L333.420190,728.953388L336.282825,731.685862L338.089353,741.043642L336.699478,743.080953L338.736412,747.930859L341.898975,753.005341L343.130695,757.714018L346.833095,753.898215L345.580540,745.420643L346.208758,739.127484L349.691432,736.650586L347.858581,732.246823L347.157000,719.658654L348.910628,712.191349L346.805843,709.859658L340.475605,707.479481Z ">
  </path>
  <path class="misamis_occidental" d="M695.122479,1493.787632L700.546172,1493.113236L707.947398,1483.231124L710.838953,1481.202364L705.414154,1449.487295L698.834675,1440.011783L697.766004,1435.007604L688.404842,1425.013293L681.722865,1424.641713L679.837051,1421.508476L677.011887,1428.776344L674.677134,1427.227947L674.929528,1430.800528L675.211822,1433.879936L677.805026,1467.631870L677.778062,1474.664818L680.778648,1494.311122L684.918982,1496.685830L688.499229,1498.210940L695.122479,1493.787632Z ">
  </path>
  <path class="misamis_oriental" d="M846.138317,1408.135635L847.125670,1398.515261L844.499685,1388.093225L840.050679,1372.152803L838.029916,1374.788178L837.354857,1381.475138L839.516378,1388.695062L838.416383,1400.216789L831.259346,1403.030937L817.136664,1388.519749L807.091101,1382.399515L801.016498,1382.387924L796.643419,1386.993535L799.780398,1404.166850L797.788571,1409.263412L799.487973,1414.067750L796.303340,1417.476717L796.591976,1423.830680L800.064058,1430.364529L797.729701,1433.764249L798.273533,1441.823207L793.772692,1444.582417L789.787940,1440.751599L777.148129,1436.597016L765.929930,1427.247786L759.301298,1431.272637L751.133617,1445.686792L751.580368,1453.737731L749.671880,1455.684681L748.410909,1461.647130L757.386369,1460.035536L771.658596,1461.102576L778.132292,1465.438275L782.112827,1472.347398L784.928225,1463.249361L786.730437,1450.804320L806.274043,1450.510979L805.585107,1444.201475L810.115415,1430.372777L826.754921,1432.129254L833.238274,1431.706184L848.849415,1431.861659L847.934208,1422.750826L846.138317,1408.135635Z ">
  </path>
  <path class="mountain_province" d="M350.164876,436.909422L346.775177,423.025027L345.273231,415.400178L334.421231,413.678823L330.596353,412.450335L323.988845,415.147838L319.764465,423.127791L316.527554,426.262446L307.971958,428.374138L299.771921,425.436094L293.694117,421.107054L281.216269,419.090999L281.926303,423.088112L279.990922,426.174617L276.619502,426.035517L272.769776,429.753326L270.275809,434.711008L270.261329,439.229328L273.262664,449.454592L273.088065,455.644381L281.306668,462.878784L283.049374,466.883984L285.708676,468.182492L290.264440,467.653057L294.187505,455.987900L292.576153,448.264875L300.496341,446.670784L317.811679,447.250372L329.234526,440.174946L337.934350,438.680058L347.888858,438.735119L349.816206,439.720193L350.164876,436.909422Z ">
  </path>
  <path class="negros_occidental" d="M636.108623,1214.653468L644.395441,1207.901086L647.819046,1196.312921L648.765306,1183.370430L653.713073,1173.440528L652.043045,1168.207432L648.413899,1165.204099L646.745075,1158.685437L642.410446,1158.556936L637.531420,1155.499774L612.958189,1148.821072L601.620138,1159.209025L598.753114,1158.202751L589.432561,1161.416499L589.237522,1167.519122L591.403350,1172.128214L591.523064,1186.249944L589.024661,1194.884921L583.167674,1202.001850L577.435913,1205.027476L581.258014,1214.556507L584.953560,1218.646700L586.479242,1224.190640L584.624926,1231.314602L585.616049,1241.527281L588.887084,1254.226856L580.660513,1258.242278L573.420368,1266.623072L553.051865,1267.727431L547.903897,1268.895986L547.554860,1275.842453L542.175340,1284.380547L543.387035,1299.832364L546.934561,1305.862506L551.669172,1309.084430L555.204399,1316.972792L565.104439,1329.243626L570.305871,1333.870283L573.072287,1324.522239L581.322310,1314.131804L588.320995,1301.761795L604.152440,1276.637093L606.122062,1264.869639L614.086571,1246.927572L621.885835,1234.797177L612.953941,1218.153536L625.502241,1217.791214L634.510759,1221.396492L636.108623,1214.653468Z ">
  </path>
  <path class="negros_oriental" d="M571.414695,1333.625983L577.002743,1338.592789L588.040365,1340.117882L597.028683,1344.533009L598.339590,1353.297846L602.154305,1363.490823L607.517272,1374.203839L615.384867,1378.506746L621.158951,1375.188956L627.019278,1377.501791L631.721965,1372.152803L641.514704,1358.055467L643.241527,1345.706365L632.928556,1328.503816L629.105737,1327.456736L624.675511,1318.991052L621.381437,1318.497883L622.089196,1312.135835L619.077090,1309.993643L623.129903,1306.871022L623.707307,1300.228459L620.129909,1286.174340L620.381396,1278.748853L627.425302,1265.684226L631.809803,1249.966023L635.184637,1233.643785L633.894482,1226.248666L634.510759,1221.396492L625.502241,1217.791214L612.953941,1218.153536L621.885835,1234.797177L614.086571,1246.927572L606.122062,1264.869639L604.152440,1276.637093L588.320995,1301.761795L581.322310,1314.131804L573.072287,1324.522239L570.305871,1333.870283L571.414695,1333.625983Z ">
  </path>
  <path class="north_cotabato" d="M801.089404,1541.925870L795.994634,1545.052050L787.238295,1538.041257L779.758202,1537.390321L774.255399,1540.500117L774.923063,1552.413473L774.626597,1555.912406L780.684814,1564.810649L766.601754,1596.612311L771.214939,1597.343885L780.530001,1588.339307L784.429050,1589.730011L779.870505,1601.624663L777.525640,1606.565797L780.569306,1610.078780L787.740667,1612.587910L794.665185,1620.249713L797.653225,1619.652495L802.869283,1622.996071L807.453451,1614.897206L804.304741,1609.351886L809.125863,1605.764119L806.127494,1594.985495L815.026408,1603.897736L815.404722,1616.666570L817.251679,1616.652527L819.603439,1642.304726L822.629316,1643.793621L828.158058,1642.035958L833.562794,1645.068638L839.562370,1649.358783L849.139919,1645.433255L851.352075,1645.179645L848.799991,1637.888361L854.775926,1635.470398L863.952334,1621.115644L865.562862,1614.136375L869.059876,1614.326903L866.374659,1609.647570L866.417956,1604.753189L858.821316,1592.830506L860.332926,1587.250138L857.636429,1575.534261L859.526134,1572.496905L858.293090,1562.532897L860.310550,1557.833733L858.673337,1550.696662L858.222405,1548.989268L854.877513,1547.520272L849.980343,1555.582842L849.364706,1562.314339L840.463853,1563.904931L838.914080,1569.304129L831.005806,1569.870920L826.844602,1566.632560L822.732721,1568.258204L817.043360,1563.994873L814.746396,1553.419664L812.349591,1546.162281L801.089404,1541.925870Z ">
  </path>
  <path class="northern_samar" d="M706.766291,990.028385L706.368959,983.998258L703.140129,984.527647L706.766291,990.028385Z M691.407685,976.317880L696.805453,987.851205L697.532359,984.465681L691.407685,976.317880Z M810.301432,990.827706L814.122386,986.023421L810.296278,982.323494L809.344581,977.648932L793.485655,965.215740L780.426097,963.397423L775.754191,968.147892L773.201800,964.767040L767.152154,966.251227L764.151594,970.314602L758.049336,969.403048L743.128343,973.426633L734.078743,970.409223L712.568623,969.469695L702.561534,968.192361L706.103497,977.709784L710.421945,982.411206L713.695694,995.616831L716.026475,999.333135L723.313904,999.240743L728.248646,993.193014L745.713660,1004.042680L752.534804,998.379457L766.707831,1006.784351L766.073477,1011.842173L769.213237,1016.146257L772.315641,1004.958911L780.009455,1005.591167L792.761776,999.413714L797.610385,998.860921L798.360634,992.460340L800.841406,988.955566L812.353045,1001.655198L815.117318,999.639289L810.301432,990.827706Z M783.135207,952.606098L779.748243,956.321198L781.377340,960.638240L786.739737,961.903873L783.135207,952.606098Z M710.744793,951.220096L711.748787,955.768513L714.225138,953.673128L710.744793,951.220096Z ">
  </path>
  <path class="nueva_ecija" d="M340.213060,581.966536L335.420752,575.648242L331.209983,556.445461L322.794216,552.512660L313.923583,550.167067L304.270785,550.851886L299.344361,552.524252L299.805852,555.641379L305.994245,567.374580L305.271174,575.285881L303.102154,577.991604L302.353547,585.750979L298.857701,589.086567L291.508988,582.477251L287.821332,582.083347L277.058785,584.527246L280.701439,596.481234L283.971622,603.742699L289.443214,609.373818L295.550026,611.138578L293.345049,617.816865L299.949015,633.015297L298.285589,637.152594L299.497119,643.695310L303.690481,646.545790L303.259187,650.500837L304.790407,656.287274L312.458479,658.020473L315.499163,662.116949L317.461797,657.456041L322.867076,656.287274L325.400229,655.836197L328.995596,652.285533L341.178941,649.935177L347.997133,655.772999L354.334319,658.390965L359.594085,658.472442L360.014743,655.283356L361.221179,625.261769L358.105331,617.327106L354.359697,609.816763L346.454469,591.724407L340.213060,581.966536Z ">
  </path>
  <path class="nueva_vizcaya" d="M341.540273,484.558895L333.719859,477.566319L332.740122,483.330601L327.944056,488.557205L319.517027,489.538949L305.984055,492.223589L292.785992,495.261337L292.293521,505.769413L294.418207,514.186721L291.850357,527.397313L287.773341,527.144742L284.477771,536.508822L286.252168,541.368534L294.202182,544.859725L296.531710,549.376806L299.344361,552.524252L304.270785,550.851886L313.923583,550.167067L322.794216,552.512660L331.209983,556.445461L335.420752,575.648242L340.213060,581.966536L346.454469,591.724407L349.291007,589.123906L362.785899,574.652447L345.686258,560.297788L338.321618,532.078015L351.953264,525.292258L351.661408,514.886919L343.879438,512.182429L343.291722,489.924826L341.540273,484.558895Z ">
  </path>
  <path class="occidental_mindoro" d="M378.836754,997.547370L376.631202,1006.312248L387.411552,1013.584692L378.836754,997.547370Z M333.564596,860.734574L329.444015,861.068820L309.877581,856.172142L301.262289,856.557769L294.464250,853.437423L287.803963,856.432719L284.890571,859.937575L289.542207,870.859931L294.102713,871.487408L293.582651,867.827196L298.153520,865.623110L302.505636,869.040246L304.857511,881.311263L310.095012,888.181842L317.687364,890.000182L323.357296,893.084282L334.225940,908.784049L337.188473,914.443893L341.622820,928.988852L344.345456,946.733642L356.808446,955.752130L361.608587,964.744861L360.490827,971.167644L367.218839,982.031383L378.823299,992.872817L379.895539,990.016683L385.409075,997.223719L381.911073,999.040913L393.916388,1004.494945L397.655422,1007.956470L394.028161,985.728970L392.141334,956.283862L385.934615,908.180984L373.221990,903.131220L357.622278,892.983864L337.323705,882.857328L343.625929,868.406861L343.845932,857.210994L333.564596,860.734574Z M281.227489,835.834848L292.585450,842.278966L292.249869,838.968136L281.227489,835.834848Z M277.317064,817.851359L276.233972,822.964302L280.265564,824.456668L277.317064,817.851359Z M256.499611,814.474973L258.645582,823.937739L271.362317,832.182742L277.269305,829.684177L275.384631,824.748788L270.402442,819.466436L265.349548,819.035222L256.499611,814.474973Z ">
  </path>
  <path class="oriental_mindoro" d="M399.384071,1004.096511L399.418123,1000.395366L411.167644,996.055053L410.152536,990.113756L413.995471,971.448165L420.265938,968.299799L422.296817,962.659954L422.924107,954.210655L414.853762,943.692816L414.767258,932.656153L412.957316,926.325502L414.056910,922.916541L413.224404,908.938298L417.668825,903.284355L414.919409,899.180032L405.454440,898.699674L403.978987,889.253454L397.543509,886.559657L388.182671,875.078739L382.510895,871.926865L375.807505,865.919017L370.895638,867.745613L362.237286,868.177826L350.458311,857.731144L345.178384,855.834329L343.845932,857.210994L343.625929,868.406861L337.323705,882.857328L357.622278,892.983864L373.221990,903.131220L385.934615,908.180984L392.141334,956.283862L394.028161,985.728970L397.655422,1007.956470L399.384071,1004.096511Z ">
  </path>
  <path class="palawan" d="M12.477643,1491.068092L5.483931,1493.466204L0.710556,1499.564302L2.505361,1505.612080L0.264369,1507.949397L3.123604,1512.137879L6.891898,1522.168515L9.025151,1522.849822L13.199525,1518.207895L15.159200,1511.294130L12.477643,1491.068092Z M7.581221,1484.651021L6.602811,1491.478346L11.310649,1490.082967L7.581221,1484.651021Z M18.559696,1478.825206L19.648027,1482.153606L25.111687,1482.157061L23.194988,1479.106956L18.559696,1478.825206Z M36.128286,1461.976693L30.790211,1463.235318L30.879943,1474.639184L34.562166,1478.908237L39.439502,1465.892887L36.128286,1461.976693Z M26.738434,1463.449194L21.283426,1466.625683L21.597418,1469.966786L29.586969,1466.169845L26.738434,1463.449194Z M203.609073,1197.481578L199.269011,1198.730813L201.098140,1201.407045L203.609073,1197.481578Z M271.327542,1190.079452L272.197393,1194.343835L267.835898,1201.006162L263.828415,1201.080944L267.752417,1213.483696L272.187691,1214.388219L277.958493,1212.237914L290.140375,1201.539112L287.845149,1196.075757L279.940981,1195.915604L271.327542,1190.079452Z M395.983997,1160.003658L389.435263,1169.102257L391.463092,1172.275550L397.236071,1167.097175L395.983997,1160.003658Z M241.131699,1137.523916L243.072966,1145.379410L246.345293,1144.146560L245.443461,1139.893883L241.131699,1137.523916Z M242.199635,1126.690723L237.381254,1129.018562L238.477284,1133.138057L244.682937,1130.187218L242.199635,1126.690723Z M226.475263,1099.670867L226.680141,1106.764388L218.882328,1128.872564L224.099488,1132.268531L224.575383,1144.957575L215.527499,1144.642063L219.510007,1148.528852L213.782230,1148.203978L214.406353,1153.528238L219.567529,1163.558664L226.207042,1164.278514L229.168392,1167.992446L232.779119,1181.483038L225.837230,1174.823056L216.220465,1169.142379L211.762787,1164.996024L212.619937,1159.533900L207.338775,1154.761200L205.715298,1159.793242L208.937594,1160.479323L208.129214,1166.285045L213.236604,1176.765281L215.857768,1175.517161L220.523206,1180.146093L219.569558,1197.030543L213.371218,1203.975729L206.992282,1217.769036L202.102021,1221.248041L199.736134,1210.822730L196.516889,1209.946181L198.549964,1217.012963L194.639854,1220.918485L191.686403,1217.932644L187.244862,1225.269360L189.439384,1228.384929L185.976880,1233.026689L184.767633,1241.499307L171.198236,1243.546748L173.150994,1262.470459L169.675889,1263.217173L168.406755,1252.341908L159.862014,1264.904746L157.126922,1266.155539L153.756226,1275.875108L153.697480,1281.469465L150.184788,1284.396930L145.132729,1294.211138L139.280770,1297.865487L135.441880,1302.786694L129.355119,1306.811395L128.177439,1315.114687L122.997288,1321.931344L117.405658,1325.931644L115.134573,1334.994487L99.078891,1354.654650L94.079845,1351.026029L87.907952,1352.421396L83.987439,1357.988819L75.284398,1363.945432L73.594232,1374.430531L62.171718,1377.409398L61.004368,1382.968696L53.277055,1390.869923L46.477448,1399.812444L42.038397,1408.052603L42.457488,1411.352904L35.034351,1415.207119L33.499951,1421.074930L23.670861,1438.810445L24.128618,1449.500112L20.732495,1460.053146L24.623017,1460.306699L29.136084,1452.410117L39.938584,1442.556002L49.070798,1440.388155L52.938204,1441.355779L55.343849,1425.000476L58.356266,1420.940519L64.164633,1423.023103L76.147228,1419.529988L79.719164,1416.396864L82.207517,1410.252098L85.474853,1409.832483L88.174375,1404.886714L95.968003,1398.753656L101.318733,1396.980799L110.008609,1376.898729L111.692422,1365.803544L120.588673,1363.264132L121.370289,1364.554289L133.671588,1362.192418L135.264765,1358.524007L149.941064,1344.274666L157.573059,1328.918747L165.842356,1314.635561L171.718267,1302.624199L165.518914,1300.221438L164.325814,1292.203359L172.008413,1298.630928L171.410262,1288.567736L168.139493,1284.705425L168.377809,1275.193813L175.400605,1273.293587L183.030569,1269.058480L191.560860,1267.694665L200.893226,1263.989632L207.952287,1263.069948L214.704216,1257.043302L214.979579,1245.850077L227.823585,1225.705238L233.351407,1224.990067L236.649195,1222.210964L241.767162,1223.930072L247.751941,1222.574401L249.192940,1217.120400L253.476091,1214.361359L261.481754,1205.596536L255.010701,1199.941598L250.609187,1189.716016L244.651315,1188.478483L247.019238,1180.698881L244.716842,1175.684335L245.963938,1171.121939L243.208344,1168.167644L236.466184,1168.452843L232.979165,1154.045920L233.914407,1148.187595L240.616604,1149.145946L238.980984,1143.067843L232.221064,1133.842750L235.559071,1128.839797L237.262613,1115.088529L235.519514,1110.820693L230.875366,1110.418696L229.894590,1102.465011L226.475263,1099.670867Z M259.852244,1088.506883L262.681988,1091.070885L262.160710,1095.937094L255.509111,1093.115979L252.046900,1098.728898L260.264032,1100.582299L261.171928,1105.053531L265.578253,1090.130141L259.852244,1088.506883Z M263.598582,1035.171626L260.826189,1044.580316L263.749687,1048.564192L265.913390,1056.531942L268.863348,1060.425875L270.773372,1069.582115L277.183550,1070.155857L281.836876,1062.667235L281.676123,1055.493010L278.824029,1054.153832L277.056514,1042.171778L271.806201,1041.692656L263.598582,1035.171626Z M298.626881,1034.229764L294.832070,1040.983279L299.134320,1050.331225L304.334799,1050.306706L304.527075,1045.886839L298.626881,1034.229764Z M258.143321,994.071909L255.440773,996.931497L255.184795,1004.105873L259.857169,1009.007109L268.869410,1024.873670L270.652153,1031.373643L277.348870,1033.378957L279.046848,1030.729686L283.552860,1036.980677L286.987087,1031.990628L285.494211,1029.003664L296.382081,1033.590489L298.679700,1031.674000L303.037186,1034.351245L306.584640,1032.846116L307.213740,1025.692826L297.062184,1015.829628L293.310963,1009.180079L292.876430,1017.054350L288.669839,1018.347949L279.300641,1008.610904L276.902503,1010.066998L274.210348,1004.936732L266.713136,1000.696950L264.110279,1001.378244L258.143321,994.071909Z ">
  </path>
  <path class="pampanga" d="M297.251099,650.035714L295.971896,651.693012L285.757843,650.794199L279.156287,653.009019L266.370888,662.155514L263.997969,662.171898L263.259374,665.863883L271.339015,676.618583L272.067945,682.819482L275.697987,686.076747L277.197538,689.998968L281.484732,692.477801L282.743691,697.564081L288.293748,702.300932L290.759219,701.510918L296.246211,704.568206L300.470656,708.183113L306.231144,700.162166L306.726030,691.342933L312.019816,691.454057L321.302660,684.498940L320.638877,681.355476L327.371869,676.428100L323.682048,665.307589L322.867076,656.287274L317.461797,657.456041L315.499163,662.116949L312.458479,658.020473L304.790407,656.287274L303.259187,650.500837L297.251099,650.035714Z ">
  </path>
  <path class="pangasinan" d="M204.040726,524.127043L206.954584,528.180217L206.074751,537.372647L200.746847,531.431763L197.806805,530.659337L204.040726,524.127043Z M207.250089,587.439728L207.237940,587.502926L206.089025,588.649416L203.549862,587.491223L205.530233,584.123979L193.080884,570.227544L192.968433,574.006083L189.381819,574.407009L186.557026,569.050513L187.946758,562.500933L185.597397,558.867293L186.529848,550.651924L183.652166,543.476936L183.273693,528.802170L186.206530,522.795974L194.104670,518.997380L197.379231,522.894060L197.856027,534.126896L210.532818,545.013987L213.750455,544.271655L218.983431,547.005578L218.426159,551.360372L220.894194,557.624722L225.477363,560.309380L233.669019,560.845955L244.158342,556.852295L251.738856,544.839662L250.062997,540.552860L258.579958,540.191726L259.438394,537.203226L263.278107,538.992402L271.669003,541.319491L274.922476,542.970902L286.252168,541.368534L294.202182,544.859725L296.531710,549.376806L299.344361,552.524252L299.805852,555.641379L305.994245,567.374580L305.271174,575.285881L303.102154,577.991604L302.353547,585.750979L298.857701,589.086567L291.508988,582.477251L287.821332,582.083347L277.058785,584.527246L276.144644,581.107504L273.500651,577.864204L271.384029,591.834308L265.442514,596.478893L256.813891,592.321616L254.340437,594.056063L249.167145,606.130527L244.225313,609.494195L234.763409,595.794076L230.918489,586.265150L223.599566,587.001462L217.206709,582.989193L214.309852,588.934645L207.237940,587.502926L207.250089,587.439728Z M196.869320,515.004845L200.345220,518.867639L196.803907,519.402875L196.869320,515.004845Z ">
  </path>
  <path class="quezon" d="M425.603707,805.271649L424.697424,811.115080L428.678164,805.952968L425.603707,805.271649Z M442.911443,774.941807L438.620535,771.116661L437.649876,775.990154L446.501826,785.686742L466.897598,798.610133L468.313942,795.626496L461.586845,788.606189L442.911443,774.941807Z M479.827745,713.363992L470.562212,717.404209L471.857304,719.890151L481.940723,718.218850L479.827745,713.363992Z M450.404990,699.896896L446.000933,701.392884L459.052583,710.567302L463.964869,709.999314L455.972958,701.322666L450.404990,699.896896Z M427.259238,675.022155L420.944849,678.002458L416.102000,677.148014L414.113723,688.888620L419.472325,691.305594L423.662074,700.987289L427.775046,705.776742L431.822133,715.475887L428.681337,718.771678L433.396336,725.470694L441.951551,715.150988L438.927204,703.940587L431.669273,692.483708L436.750301,691.199263L434.406860,683.361728L437.971838,680.999031L432.599925,676.681781L427.259238,675.022155Z M366.129457,682.092549L368.258297,694.368800L368.510233,699.403695L380.212377,720.761969L383.449737,727.602419L386.224045,731.351603L391.670892,739.526721L396.725443,749.093792L404.824324,752.644336L407.734654,768.116728L404.472083,775.645423L400.868658,778.491208L397.648395,787.885077L383.034869,797.097807L378.361969,802.041368L374.605611,802.779976L375.430450,805.681800L373.837591,810.062061L380.213272,813.239728L393.620139,817.376788L396.783726,819.666273L400.143008,815.920642L412.698241,809.398240L420.214384,808.076506L419.669437,802.965771L431.796622,805.550953L432.377574,809.519837L439.403865,811.545069L440.581642,814.683058L450.635024,821.291939L454.930444,821.675228L459.516046,825.052722L463.023500,823.775351L472.131873,835.498259L477.947301,844.557849L488.822538,846.555089L498.317640,854.746326L500.249572,859.498117L508.445876,867.523377L513.568443,879.444884L512.535756,886.781781L519.774175,894.619978L533.324815,889.325898L529.881047,883.334232L528.617250,872.192122L523.802549,862.147460L514.312562,851.047538L515.613783,848.798973L505.949676,839.825880L503.563077,833.983718L504.624815,829.751941L504.325617,817.976298L495.629003,807.940866L504.874769,807.118111L506.554686,804.552880L530.535670,796.959938L514.241323,790.453886L492.766746,781.280816L487.906871,789.918569L482.421112,791.358452L479.227346,788.980120L479.485399,783.431229L475.176950,784.111438L474.326954,771.446235L464.820619,783.316653L469.680232,789.071290L476.211418,792.840354L481.453218,801.867277L479.299912,803.585234L468.400797,799.266934L475.961631,806.236954L475.081558,810.854388L469.791286,808.430595L454.185976,804.758625L440.297375,797.545408L422.603336,782.805966L419.363330,778.134663L420.988696,769.626615L417.576823,766.394072L410.386041,753.465877L403.753108,739.526721L398.685877,722.378319L406.336510,716.724097L411.116806,717.005750L401.473399,707.694594L392.674510,694.930995L389.788751,685.689875L380.978536,673.208270L377.380381,660.784561L374.415206,657.918822L370.329499,656.624997L368.723295,658.341923L365.320788,676.663056L366.129457,682.092549Z ">
  </path>
  <path class="quirino" d="M413.705749,503.072061L383.398735,519.343355L362.605192,496.605330L358.650317,491.266365L343.291722,489.924826L343.879438,512.182429L351.661408,514.886919L351.953264,525.292258L338.321618,532.078015L345.686258,560.297788L362.785899,574.652447L377.108614,557.824684L394.559908,538.267904L399.264310,530.923500L413.094964,507.879145L419.091532,502.945664L413.705749,503.072061Z ">
  </path>
  <path class="rizal" d="M368.011748,763.419658L364.989877,751.952417L364.047648,757.397372L368.011748,763.419658Z M365.600787,739.350285L365.820936,739.165602L365.744907,738.921401L365.600787,739.350285Z M365.445917,738.453841L365.541190,738.381394L365.425820,738.342830L365.445917,738.453841Z M383.449737,727.602419L380.212377,720.761969L368.510233,699.403695L368.258297,694.368800L360.229356,700.325786L353.120803,703.185684L346.805843,709.859658L348.910628,712.191349L347.157000,719.658654L347.858581,732.246823L349.691432,736.650586L352.897790,736.378298L358.077122,741.103383L360.524251,746.637187L365.246609,738.125490L372.897894,743.939835L373.442462,760.258330L376.032011,763.570457L381.631469,758.312424L376.499643,742.536154L381.232106,733.415558L386.224045,731.351603L383.449737,727.602419Z ">
  </path>
  <path class="romblon" d="M470.281925,1021.018287L469.262765,1026.991216L473.751300,1028.159878L470.281925,1021.018287Z M527.457784,973.298131L522.123303,974.095113L515.959245,979.176360L518.941357,985.942843L527.251301,989.010511L531.649447,995.861019L538.193016,999.364676L542.708122,996.152015L544.470091,985.439087L540.653401,978.297573L536.723405,974.857100L527.457784,973.298131Z M498.942593,959.302392L495.863476,965.832841L499.468622,975.170275L502.771318,976.511915L505.047655,972.811984L498.942593,959.302392Z M480.985373,953.562012L477.109249,959.827214L473.442189,960.099487L471.771132,968.653989L473.218351,974.875823L466.944973,986.640521L465.895746,995.178609L470.890078,1001.800083L476.825646,1004.946094L472.861297,1014.265986L479.044115,1020.141846L483.479395,990.763511L482.707386,986.654564L483.755372,970.668680L485.299479,969.500010L482.382226,960.119326L486.341075,958.561468L480.985373,953.562012Z M475.593646,934.486181L470.857416,937.012888L474.034439,940.544549L475.593646,934.486181Z M434.970796,921.455749L433.203474,922.852345L438.522490,923.761565L434.970796,921.455749Z M473.474966,919.994956L469.760653,920.108302L472.270943,926.584961L473.474966,919.994956Z ">
  </path>
  <path class="samar" d="M772.506552,1068.185543L772.888207,1072.292118L778.447621,1076.313435L776.565978,1070.405949L772.506552,1068.185543Z M761.851360,1064.365279L761.353243,1071.131707L768.913610,1078.118914L767.233850,1082.130868L773.686706,1087.365085L774.584556,1078.509210L769.424034,1077.996209L770.061257,1074.102391L761.851360,1064.365279Z M730.151039,1040.787017L727.067301,1044.465857L731.207894,1046.364846L730.151039,1040.787017Z M717.796988,1037.036847L713.157243,1044.122258L716.584542,1043.286720L717.796988,1037.036847Z M705.109265,1022.794686L699.428009,1023.419919L697.595171,1026.114775L700.824760,1028.799154L705.109265,1022.794686Z M792.761776,999.413714L780.009455,1005.591167L772.315641,1004.958911L769.213237,1016.146257L766.073477,1011.842173L766.707831,1006.784351L752.534804,998.379457L745.713660,1004.042680L728.248646,993.193014L723.313904,999.240743L716.026475,999.333135L720.569962,1009.486232L727.432748,1014.499696L730.391212,1019.254816L737.709308,1025.683576L749.294638,1027.348858L754.115655,1031.633098L762.808808,1043.695740L765.442623,1042.577343L767.751256,1050.673598L774.188327,1055.432270L777.918022,1061.514960L780.787787,1062.470973L789.985594,1058.414658L793.392993,1061.887758L787.453165,1070.629182L790.010627,1076.333273L786.525304,1079.722336L779.062256,1081.754503L780.140447,1086.850969L776.069677,1085.959263L773.960277,1091.313956L776.198791,1094.826837L782.663892,1094.331333L791.880448,1100.615065L795.088310,1117.755397L807.713835,1116.066719L812.472747,1119.572576L816.071300,1127.818477L818.587615,1137.783370L821.525586,1139.181054L822.887109,1135.505683L820.057685,1112.196199L824.935387,1102.717444L817.780890,1098.457742L815.131906,1094.184109L815.163894,1088.429760L812.133690,1079.358900L813.166648,1075.261576L818.865608,1070.140699L814.752576,1047.406120L807.136507,1033.022541L797.632091,1033.045946L795.092277,1012.474428L798.172888,1010.307730L797.610385,998.860921L792.761776,999.413714Z ">
  </path>
  <path class="sarangani" d="M780.425202,1710.990701L777.549792,1715.534460L776.789430,1719.726474L781.186170,1722.845644L795.485356,1731.229672L800.754184,1731.781307L824.618788,1744.311709L826.951426,1746.519308L841.068008,1750.512657L853.154089,1749.937673L855.058471,1743.654918L855.148728,1738.854038L849.930563,1738.296608L849.269834,1726.909097L845.934593,1733.318072L822.942223,1732.410012L807.982334,1723.725675L800.580608,1721.073937L796.587652,1716.541881L780.686616,1708.674436L780.425202,1710.990701Z M858.722863,1678.695788L857.248611,1679.378324L856.017817,1684.218935L853.175188,1684.220106L849.724053,1693.537827L870.217989,1701.533887L870.767143,1705.537712L867.774106,1711.639300L868.399109,1722.200556L871.680307,1723.633336L874.492531,1734.818616L872.295215,1742.018793L864.079618,1752.460850L863.726112,1757.199762L874.778760,1767.685062L878.706592,1776.729335L877.282175,1780.837201L880.459530,1783.941157L878.909625,1781.623722L887.416162,1771.714578L895.635839,1751.031525L896.600442,1733.309881L898.998165,1726.851866L898.313775,1720.670757L895.911621,1717.409038L894.621012,1706.183971L890.505937,1698.390141L885.250800,1694.782474L883.282469,1696.183713L868.938154,1694.503174L859.916175,1685.628310L858.722863,1678.695788Z ">
  </path>
  <path class="shariff_kabunsuan" d="M779.870505,1601.624663L784.429050,1589.730011L780.530001,1588.339307L771.214939,1597.343885L766.601754,1596.612311L780.684814,1564.810649L774.626597,1555.912406L774.923063,1552.413473L774.255399,1540.500117L767.214168,1550.341407L759.078716,1554.401336L755.785453,1557.192102L751.216142,1567.503226L753.755862,1569.304129L756.609884,1569.207110L757.892271,1575.862656L754.300976,1576.023927L753.479901,1586.583987L763.504161,1596.952352L757.366034,1596.429975L756.362692,1596.415932L749.481747,1594.008503L739.795247,1599.722113L733.898827,1611.766338L730.423320,1629.101163L732.540527,1632.185278L733.126591,1640.853223L737.613837,1641.242415L740.190649,1645.823562L746.259907,1645.945101L744.475074,1641.303157L743.551178,1630.912601L746.769150,1628.880264L746.725368,1622.849957L763.403398,1623.298720L765.290337,1617.588617L771.749394,1611.370180L771.318042,1608.255695L776.131843,1611.324596L777.525640,1606.565797L779.870505,1601.624663Z ">
  </path>
  <path class="siquijor" d="M673.372985,1347.843770L672.972779,1351.710784L669.220586,1356.608610L660.275895,1356.748815L659.259227,1361.657230L670.681591,1371.152418L678.317136,1368.490296L682.918619,1368.863100L679.771217,1360.830932L682.469290,1356.905515L676.397100,1348.526296L673.372985,1347.843770Z ">
  </path>
  <path class="sorsogon" d="M622.675783,922.592887L624.625374,921.780629L628.627633,926.584961L641.956616,928.987738L644.403602,933.662334L653.655435,930.156415L657.786462,918.794735L661.911103,918.079552L674.770973,924.287393L672.837579,929.976422L666.098970,929.961153L665.873256,933.012574L657.471922,931.811131L654.517431,935.609274L656.460337,938.953920L657.917461,947.978214L661.610797,955.768513L672.970932,967.260857L676.258036,969.306086L684.028599,969.760693L684.321094,958.111542L687.963786,954.957375L686.730154,946.809652L688.148723,941.583383L687.712018,932.590620L683.523992,927.801563L686.014221,914.876214L689.527720,912.936289L687.969492,907.763821L681.878549,906.698009L678.965597,914.217090L672.768223,910.691320L668.246033,905.577251L661.587671,901.713665L658.041646,911.124867L654.614287,910.652758L648.514749,914.047683L631.073562,913.879392L625.454006,911.893883L616.375320,916.813909L622.675783,922.592887Z ">
  </path>
  <path class="south_cotabato" d="M852.221401,1671.238548L823.481460,1671.383436L813.831237,1655.150696L806.453403,1663.514825L803.113829,1661.002181L799.872636,1672.058950L804.993192,1686.093458L800.499462,1696.640669L795.063705,1694.492641L767.985810,1695.346926L772.407246,1705.452395L780.686616,1708.674436L796.587652,1716.541881L800.580608,1721.073937L807.982334,1723.725675L822.942223,1732.410012L845.934593,1733.318072L849.269834,1726.909097L849.930563,1738.296608L855.148728,1738.854038L858.824603,1731.227332L861.032811,1721.215927L868.399109,1722.200556L867.774106,1711.639300L870.767143,1705.537712L870.217989,1701.533887L849.724053,1693.537827L853.175188,1684.220106L856.017817,1684.218935L857.248611,1679.378324L858.722863,1678.695788L861.205106,1673.936983L860.815572,1670.910152L852.221401,1671.238548Z ">
  </path>
  <path class="southern_leyte" d="M783.036353,1247.865978L787.984741,1250.870549L797.117174,1252.050912L799.097085,1255.750820L807.587971,1262.049737L811.211372,1262.406153L808.379630,1247.926829L804.995156,1241.045819L805.072512,1234.293536L802.302140,1222.249525L810.425505,1229.943885L816.916805,1242.181824L819.710666,1244.875450L820.371881,1252.893472L823.590255,1259.289460L827.841106,1261.167389L836.860710,1276.173126L840.724960,1273.342736L829.932709,1251.043519L825.028932,1250.491954L821.446793,1247.278192L819.736720,1235.411932L821.180490,1233.720909L828.384199,1237.333099L832.463706,1236.333954L833.914315,1231.176739L829.995034,1220.010506L827.459486,1221.079752L823.330501,1215.941266L824.129821,1210.951232L820.656207,1203.681168L821.931614,1196.572375L818.080981,1193.390275L809.294503,1204.884821L797.670293,1204.831102L794.227996,1218.846529L796.464947,1235.134869L791.009016,1236.567664L784.537627,1244.447706L782.832241,1243.654296L783.036353,1247.865978Z ">
  </path>
  <path class="sultan_kudarat" d="M746.259907,1645.945101L740.190649,1645.823562L737.812220,1648.838745L742.758958,1663.317331L740.922919,1667.796835L743.377764,1686.892796L745.678501,1687.307679L749.221219,1694.708860L756.593993,1701.623829L758.959333,1709.025011L768.683235,1715.127769L774.043501,1720.289811L776.789430,1719.726474L777.549792,1715.534460L780.425202,1710.990701L780.686616,1708.674436L772.407246,1705.452395L767.985810,1695.346926L795.063705,1694.492641L800.499462,1696.640669L804.993192,1686.093458L799.872636,1672.058950L803.113829,1661.002181L806.453403,1663.514825L813.831237,1655.150696L823.481460,1671.383436L852.221401,1671.238548L860.815572,1670.910152L859.997448,1664.226561L857.846470,1659.375419L853.205040,1653.999558L852.760923,1649.021026L851.352075,1645.179645L849.139919,1645.433255L839.562370,1649.358783L831.825694,1653.596378L825.650883,1657.181808L815.965115,1650.665342L812.551711,1642.178505L804.335620,1641.981011L806.741808,1632.106982L802.579736,1630.399529L792.418380,1632.864247L795.013667,1641.937768L788.785188,1649.051452L765.258022,1648.956773L763.264432,1645.505700L746.259907,1645.945101Z ">
  </path>
  <path class="sulu" d="M416.882653,1790.029091L415.376534,1794.156015L418.893351,1794.061336L416.882653,1790.029091Z M413.936758,1783.958823L411.065902,1784.662479L409.093633,1789.887212L412.412163,1792.400190L413.936758,1783.958823Z M419.562704,1781.803440L416.539374,1783.656619L416.450393,1788.933512L425.535794,1787.497444L419.562704,1781.803440Z M441.837064,1770.618385L436.335621,1771.965848L438.961040,1773.561070L441.837064,1770.618385Z M420.482927,1768.406941L413.477793,1772.320769L419.472365,1772.723392L420.482927,1768.406941Z M425.441743,1761.989441L422.025174,1764.818444L422.843720,1769.210738L426.279902,1767.926246L425.441743,1761.989441Z M448.382870,1751.144929L447.039029,1756.166652L450.018053,1759.406191L453.636537,1758.066920L448.382870,1751.144929Z M474.957108,1727.269034L471.768098,1731.372220L476.130389,1731.716999L474.957108,1727.269034Z M502.070313,1726.785218L502.414384,1730.951542L506.732218,1729.927793L502.070313,1726.785218Z M443.049633,1722.886547L433.349727,1723.406641L429.661647,1728.437727L423.822425,1730.418631L420.473443,1742.949033L424.894986,1746.227135L436.013477,1742.428995L440.681785,1747.851613L441.917803,1745.578536L452.075358,1739.370622L458.083667,1742.912811L463.718712,1748.434789L469.367527,1743.208495L475.357469,1734.132624L472.769553,1732.381981L453.500317,1734.021617L447.608497,1724.509856L443.049633,1722.886547Z M510.782110,1722.654001L509.563902,1724.373103L514.905762,1730.126458L520.526814,1733.793697L521.003340,1731.223821L516.145404,1728.795323L510.782110,1722.654001Z M375.152819,1713.310533L370.869833,1715.452654L375.258246,1717.594830L375.152819,1713.310533Z M394.518541,1696.072706L391.340414,1702.370617L393.145812,1704.350351L395.952129,1699.025923L394.518541,1696.072706Z M387.930476,1687.425707L379.674227,1703.019216L382.490593,1705.648719L387.074813,1704.284929L387.930476,1687.425707Z ">
  </path>
  <path class="surigao_del_norte" d="M909.049645,1294.292943L905.685954,1298.729116L908.464651,1305.213863L906.120535,1308.402018L907.775462,1314.829485L913.069402,1316.714561L914.267135,1303.046039L912.105242,1302.819349L909.049645,1294.292943Z M904.444899,1324.160024L902.962843,1320.478696L893.150523,1318.335499L886.863029,1313.174666L880.150329,1312.070302L875.838598,1308.207982L873.257513,1298.862300L866.869926,1291.879707L858.841244,1289.250258L853.443131,1293.048376L853.474636,1306.195520L859.911711,1326.307902L862.040938,1331.596018L865.645043,1329.707039L876.668585,1329.784720L887.546437,1332.754215L892.733456,1339.920392L893.495194,1345.038996L909.250564,1325.103120L904.444899,1324.160024Z M873.444141,1276.737622L869.332914,1276.689698L871.799482,1280.095172L873.444141,1276.737622Z M876.574769,1275.955798L872.844597,1279.965444L872.859312,1286.425661L878.720637,1286.522622L876.574769,1275.955798Z M909.752083,1270.583564L906.016678,1276.848626L908.488139,1278.435677L910.932821,1274.122219L909.752083,1270.583564Z M918.064175,1258.639597L915.060800,1262.863097L914.879326,1268.855084L910.505699,1275.064085L911.338046,1282.213842L908.894334,1283.991363L918.573207,1294.528995L926.826085,1295.596021L931.501333,1291.108359L925.815105,1281.601534L918.064175,1258.639597Z ">
  </path>
  <path class="surigao_del_sur" d="M972.092783,1505.190178L974.567615,1504.638602L974.613719,1492.631763L976.389187,1488.772849L976.238763,1479.275249L974.167542,1472.345058L965.153085,1478.246770L962.509581,1472.436226L967.224735,1468.391526L968.144897,1464.677505L963.139818,1463.151172L966.676140,1453.477045L965.115512,1445.199525L967.870029,1444.972720L967.345843,1440.135717L961.441550,1437.376508L947.992679,1434.616186L943.011013,1438.122120L939.667667,1436.304901L939.478280,1431.759903L934.893922,1427.994511L935.903118,1425.235304L944.776986,1418.287750L948.070068,1419.099897L947.176496,1414.034984L949.659605,1410.464747L954.478819,1409.652489L958.641893,1401.115533L950.467094,1384.787135L944.002278,1377.346317L939.506739,1364.182600L938.936491,1354.420938L936.897114,1346.928758L934.123222,1351.319368L923.784689,1353.806174L918.317057,1346.351442L915.667040,1338.463060L912.133600,1339.209781L907.878636,1332.892079L910.993574,1329.470317L909.250564,1325.103120L893.495194,1345.038996L893.527650,1348.844154L895.154476,1355.489084L904.210065,1366.131991L908.314771,1372.413488L911.198130,1381.857304L913.715940,1398.362127L918.292361,1403.271672L922.020020,1413.323254L927.508597,1422.196912L925.232532,1424.062054L926.725679,1433.212564L929.293205,1433.443937L932.027850,1445.626050L938.781341,1444.885119L934.298947,1451.142131L938.585572,1455.507027L957.003726,1457.021657L957.251254,1466.308937L952.562082,1473.008865L951.547115,1479.033287L954.249762,1479.442315L961.041321,1486.204216L967.800196,1485.391954L962.139004,1492.195874L966.788004,1493.612318L967.948341,1499.725573L968.407565,1507.964611L969.719389,1510.331909L972.092783,1505.190178Z ">
  </path>
  <path class="tarlac" d="M303.690481,646.545790L299.497119,643.695310L298.285589,637.152594L299.949015,633.015297L293.345049,617.816865L295.550026,611.138578L289.443214,609.373818L283.971622,603.742699L280.701439,596.481234L277.058785,584.527246L276.144644,581.107504L273.500651,577.864204L271.384029,591.834308L265.442514,596.478893L256.813891,592.321616L254.340437,594.056063L249.167145,606.130527L244.225313,609.494195L245.548694,611.735785L241.741990,614.468360L239.476265,639.639719L253.187187,647.969358L259.486531,654.624183L263.997969,662.171898L266.370888,662.155514L279.156287,653.009019L285.757843,650.794199L295.971896,651.693012L297.251099,650.035714L303.259187,650.500837L303.690481,646.545790Z ">
  </path>
  <path class="tawi-tawi" d="M277.184588,1877.960680L273.922677,1880.330380L275.908864,1882.862522L277.184588,1877.960680Z M283.548257,1890.296393L286.005737,1880.298449L284.669634,1870.688525L279.194242,1864.845243L281.643242,1874.877016L281.131396,1888.316665L283.548257,1890.296393Z M315.534179,1859.164347L316.268845,1867.507451L321.182343,1866.112067L320.301582,1861.826555L315.534179,1859.164347Z M337.362270,1849.274001L334.162332,1852.633848L336.369855,1854.866741L337.362270,1849.274001Z M315.176192,1836.501930L311.871564,1837.935879L308.785943,1843.616726L309.588171,1846.440209L316.282433,1843.518592L315.176192,1836.501930Z M366.254851,1827.566276L360.945217,1821.273496L359.857535,1828.957706L366.254851,1827.566276Z M371.191986,1820.283407L368.147154,1825.256087L370.015531,1828.828588L371.191986,1820.283407Z M355.057828,1809.627256L341.766463,1817.645491L335.740774,1823.391819L329.915942,1824.282326L328.415619,1828.262799L322.898847,1832.000194L317.867303,1832.382365L316.624582,1843.886720L321.016305,1844.805256L326.996078,1840.311768L331.027909,1841.432479L336.049040,1832.059821L340.276365,1829.373034L343.819455,1832.806609L347.663695,1827.449418L353.878992,1829.138147L351.881333,1833.698285L357.450003,1836.117419L357.844864,1822.974597L359.975519,1818.165529L355.836220,1815.146891L355.057828,1809.627256Z M167.964033,1610.922587L159.012418,1614.589820L160.627307,1617.998818L169.549246,1619.329951L169.990938,1612.220953L167.964033,1610.922587Z ">
  </path>
  <path class="zambales" d="M206.147101,594.252457L202.806376,595.748488L210.134364,600.713299L209.255689,610.404608L215.897757,620.895298L215.100161,625.808707L210.533465,626.003985L210.309173,631.360332L226.030425,650.579193L233.560277,672.461493L236.878398,695.884631L242.283743,707.341608L246.373238,708.333804L249.559707,712.424406L252.624171,710.574324L253.813083,703.302492L252.198285,696.516932L256.370970,699.308956L262.359894,705.108219L269.181912,694.510241L275.462339,695.567867L277.197538,689.998968L275.697987,686.076747L272.067945,682.819482L271.339015,676.618583L263.259374,665.863883L263.997969,662.171898L259.486531,654.624183L253.187187,647.969358L239.476265,639.639719L241.741990,614.468360L245.548694,611.735785L244.225313,609.494195L234.763409,595.794076L230.918489,586.265150L223.599566,587.001462L217.206709,582.989193L214.309852,588.934645L207.237940,587.502926L206.089025,588.649416L203.549862,587.491223L206.147101,594.252457Z ">
  </path>
  <path class="zamboanga_del_norte" d="M670.372910,1427.215019L667.559873,1424.488579L669.309465,1420.194908L665.752230,1420.008004L661.625795,1416.185329L656.799538,1414.792296L660.153621,1424.208055L653.526303,1425.621038L652.153870,1434.048228L646.784505,1439.998966L639.222904,1437.694369L621.488398,1443.379853L619.953173,1450.173281L617.413871,1451.464672L613.884843,1463.962318L620.809391,1474.805024L612.899159,1482.629283L607.328219,1482.661938L604.981489,1484.966542L594.994088,1486.752225L589.715836,1485.713381L587.104108,1480.909022L583.970156,1486.491651L578.796039,1490.463910L567.852399,1491.264470L557.228282,1494.932913L543.363692,1505.255656L543.475343,1511.936875L538.912217,1515.102783L531.866332,1529.597694L537.027092,1541.583488L534.324804,1547.022414L538.153158,1550.786659L531.530746,1556.653341L530.220061,1572.842853L528.454785,1574.758274L532.244027,1582.765962L519.257900,1593.456869L516.860735,1599.641477L534.395131,1599.232447L541.439266,1591.052951L543.092082,1584.618301L542.728959,1574.012657L547.077308,1562.835602L547.672922,1554.762441L559.073481,1529.123186L577.954085,1514.154995L588.979010,1508.047587L602.811756,1506.625347L615.103821,1509.351799L619.914867,1509.855507L630.347517,1500.399858L640.295424,1500.321562L639.818211,1493.843692L642.039768,1487.431302L641.666147,1471.857679L656.934392,1472.751746L660.567445,1474.729125L677.778062,1474.664818L677.805026,1467.631870L675.211822,1433.879936L674.929528,1430.800528L674.677134,1427.227947L670.372910,1427.215019Z ">
  </path>
  <path class="zamboanga_del_sur" d="M556.974411,1617.978980L551.323357,1617.995307L549.666860,1620.394602L556.974411,1617.978980Z M516.918771,1607.124397L520.195849,1617.908876L531.325938,1626.049759L540.119481,1629.842099L545.167389,1626.438951L549.665959,1612.772587L549.592323,1608.116603L553.112756,1604.633991L555.855464,1584.559844L555.597657,1579.178141L562.527380,1578.086632L565.639626,1571.126097L560.470390,1567.324401L561.229079,1562.426572L547.077308,1562.835602L542.728959,1574.012657L543.092082,1584.618301L541.439266,1591.052951L534.395131,1599.232447L516.860735,1599.641477L516.918771,1607.124397Z M660.567445,1474.729125L656.934392,1472.751746L641.666147,1471.857679L642.039768,1487.431302L639.818211,1493.843692L640.295424,1500.321562L630.347517,1500.399858L619.914867,1509.855507L615.103821,1509.351799L615.825323,1519.477057L632.057240,1521.031368L633.454833,1521.989690L635.574875,1534.309726L636.855725,1531.842675L639.552279,1540.211455L646.657378,1547.583354L637.318094,1551.285687L639.012661,1556.644035L657.807573,1554.684146L656.771187,1562.065410L666.581992,1570.028681L670.091828,1574.900877L674.843779,1572.940987L674.064122,1565.858914L666.490697,1559.419588L665.932293,1545.769635L675.050464,1538.518050L674.992771,1531.555184L668.360843,1526.829110L669.360591,1521.123706L672.160334,1521.876343L679.344456,1517.786049L683.360714,1517.267128L688.506348,1519.875609L688.586081,1519.815648L690.027605,1515.420645L692.462816,1505.266189L689.579405,1503.619540L688.499229,1498.210940L684.918982,1496.685830L680.778648,1494.311122L677.778062,1474.664818L660.567445,1474.729125Z ">
  </path>
  <path class="zamboanga_sibugay" d="M617.309134,1565.080586L616.375343,1572.323931L607.794658,1566.415172L606.622428,1576.544020L609.002484,1582.614052L618.646499,1578.848577L622.411281,1568.980416L617.309134,1565.080586Z M602.811756,1506.625347L588.979010,1508.047587L577.954085,1514.154995L559.073481,1529.123186L547.672922,1554.762441L547.077308,1562.835602L561.229079,1562.426572L563.245433,1559.764366L570.508530,1553.878959L568.732751,1550.119394L578.666166,1530.883183L587.391646,1525.739943L595.964669,1525.129910L599.321851,1529.083453L601.533988,1526.810442L605.729664,1529.359242L603.335435,1537.815678L608.792474,1552.684580L604.634989,1557.765914L608.682270,1560.897947L608.107772,1564.691395L612.097835,1564.921655L614.834521,1561.735846L615.580507,1553.981774L618.693351,1553.917521L626.158915,1563.137080L630.092916,1550.053916L629.236213,1543.605232L632.191796,1539.421426L635.574875,1534.309726L633.454833,1521.989690L632.057240,1521.031368L615.825323,1519.477057L615.103821,1509.351799L602.811756,1506.625347Z ">
  </path>
 </g>
</svg>